<?xml version="1.0" encoding="UTF-8"?>
<svg width="16px" height="8px" viewBox="0 0 16 8" version="1.1" xmlns="http://www.w3.org/2000/svg" xmlns:xlink="http://www.w3.org/1999/xlink">
    <title>Icons/Calendar</title>
    <defs>
        <path d="M15.7037602,4.25118582 C16.0756745,4.60781515 16.1007992,5.21230782 15.7598777,5.60135799 L10.152,12 L15.7598777,18.398642 C16.0723891,18.7552713 16.07732,19.2929322 15.7895028,19.6547611 L15.7037602,19.7488142 C15.3318459,20.1054435 14.7539783,20.0791612 14.4130568,19.690111 L14.4130568,19.690111 L8.2401274,12.6457345 C8.23618936,12.6412405 8.23230017,12.6367178 8.22845978,12.6321671 L8.29624494,12.7044377 C8.25441962,12.6643313 8.21698021,12.6210901 8.18395408,12.5753732 C8.17181285,12.5583956 8.16025577,12.5412407 8.14930506,12.5238037 C8.13813207,12.5061582 8.12751031,12.4879132 8.11752147,12.4693849 C8.10845608,12.4524889 8.1000408,12.4357291 8.09213673,12.4187824 C8.08280584,12.3987773 8.07402539,12.3780824 8.06597785,12.3571412 C8.05880228,12.3386008 8.05223111,12.3198305 8.0462436,12.3009096 C8.04038277,12.2821514 8.0350772,12.2634417 8.03032783,12.2446045 C8.0249724,12.223677 8.02037251,12.2025341 8.01646849,12.181286 C8.01252485,12.1594514 8.00923725,12.1374797 8.00668202,12.1154263 C8.00477289,12.0993992 8.00328826,12.083068 8.00220448,12.0667167 C8.0007386,12.0441947 7.99999807,12.0218119 8.00000519,11.999423 C8.00002034,11.97752 8.00076079,11.955472 8.00222495,11.933473 C8.00328826,11.916932 8.00477289,11.9006008 8.00665912,11.8843072 C8.00923725,11.8625203 8.01252485,11.8405486 8.01654302,11.8187018 C8.02037251,11.7974659 8.0249724,11.776323 8.0302698,11.7553248 C8.0350772,11.7365583 8.04038277,11.7178486 8.04624335,11.6992953 C8.05223111,11.6801695 8.05880228,11.6613992 8.06595835,11.6428094 C8.07402539,11.6219176 8.08280584,11.6012227 8.09231738,11.5808178 C8.1000408,11.5642709 8.10845608,11.5475111 8.11738359,11.5309627 C8.12751031,11.5120868 8.13813207,11.4938418 8.14938529,11.4759157 C8.16025577,11.4587593 8.17181285,11.4416044 8.18397761,11.424763 C8.21698021,11.3789099 8.25441962,11.3356687 8.29624494,11.2955623 L8.22845978,11.3678329 C8.23230017,11.3632822 8.23618936,11.3587595 8.2401274,11.3542655 L14.4130568,4.30988896 C14.7539783,3.92083879 15.3318459,3.8945565 15.7037602,4.25118582 Z" id="path-1"></path>
    </defs>
    <g id="Template-Group" stroke="none" stroke-width="1" fill="none" fill-rule="evenodd" opacity="0.599353609">
        <g id="2.1-Template-Create-Group-Summary-(Light)" transform="translate(-1284.000000, -263.000000)">
            <g id="Table" transform="translate(270.000000, 194.000000)">
                <g id="Row-1" transform="translate(0.000000, 48.000000)">
                    <g id="Role-Dropdown" transform="translate(656.000000, 8.000000)">
                        <g id="Icons/Calendar" transform="translate(354.000000, 5.000000)">
                            <mask id="mask-2" fill="white">
                                <use xlink:href="#path-1"></use>
                            </mask>
                            <use id="Icon" fill="#4A4A4A" fill-rule="nonzero" transform="translate(12.000000, 12.000000) scale(1, -1) rotate(90.000000) translate(-12.000000, -12.000000) " xlink:href="#path-1"></use>
                        </g>
                    </g>
                </g>
            </g>
        </g>
    </g>
</svg>