<?xml version="1.0" encoding="UTF-8"?>
<svg width="16px" height="8px" viewBox="0 0 16 8" version="1.1" xmlns="http://www.w3.org/2000/svg" xmlns:xlink="http://www.w3.org/1999/xlink">
    <title>Icons/Calendar</title>
    <defs>
        <path d="M11.7037576,-3.74881674 C12.075672,-3.39218742 12.1007966,-2.78769475 11.7598752,-2.39864458 L6.15200257,3.99999743 L11.7598752,10.3986394 C12.0723865,10.7552688 12.0773174,11.2929296 11.7895003,11.6547586 L11.7037576,11.7488116 C11.3318433,12.1054409 10.7539757,12.0791586 10.4130542,11.6901085 L10.4130542,11.6901085 L4.24012483,4.64573195 C4.2361868,4.64123797 4.2322976,4.63671524 4.22845722,4.63216449 L4.29624237,4.70443509 C4.25441706,4.66432871 4.21697764,4.62108758 4.18395151,4.57537063 C4.17181028,4.55839306 4.1602532,4.54123815 4.1493025,4.52380115 C4.1381295,4.50615568 4.12750774,4.48791067 4.1175189,4.46938229 C4.10845351,4.45248629 4.10003823,4.43572649 4.09213417,4.41877986 C4.08280327,4.39877475 4.07402282,4.37807978 4.06597528,4.35713868 C4.05879971,4.33859825 4.05222854,4.31982789 4.04624103,4.30090703 C4.0403802,4.28214884 4.03507463,4.26343917 4.03032527,4.24460198 C4.02496983,4.22367448 4.02036994,4.20253158 4.01646592,4.18128341 C4.01252228,4.15944887 4.00923468,4.13747714 4.00667945,4.11542376 C4.00477033,4.0993966 4.00328569,4.08306543 4.00220192,4.06671414 C4.00073604,4.04419216 3.9999955,4.02180933 4.00000262,3.9994204 C4.00001777,3.9775174 4.00075822,3.95546939 4.00222238,3.9334704 C4.00328569,3.91692943 4.00477033,3.90059827 4.00665655,3.88430461 C4.00923468,3.86251772 4.01252228,3.84054599 4.01654045,3.81869924 C4.02036994,3.79746328 4.02496983,3.77632039 4.03026724,3.75532224 C4.03507463,3.73655569 4.0403802,3.71784602 4.04624079,3.69929277 C4.05222854,3.68016698 4.05879971,3.66139662 4.06595578,3.64280687 C4.07402282,3.62191508 4.08280327,3.60122012 4.09231481,3.58081527 C4.10003823,3.56426837 4.10845351,3.54750858 4.11738103,3.53096014 C4.12750774,3.51208419 4.1381295,3.49383919 4.14938272,3.4759131 C4.1602532,3.45875672 4.17181028,3.44160181 4.18397504,3.42476047 C4.21697764,3.37890729 4.25441706,3.33566615 4.29624237,3.29555978 L4.22845722,3.36783038 C4.2322976,3.36327962 4.2361868,3.3587569 4.24012483,3.35426292 L10.4130542,-3.69011361 C10.7539757,-4.07916378 11.3318433,-4.10544607 11.7037576,-3.74881674 Z" id="path-1"></path>
    </defs>
    <g id="Dashboard" stroke="none" stroke-width="1" fill="none" fill-rule="evenodd">
        <g id="1.1-Dashboard-Online-More-(Dark)" transform="translate(-1156.000000, -202.000000)">
            <g id="Search-Rate" transform="translate(246.000000, 120.000000)">
                <g id="Year" transform="translate(35.000000, 68.000000)">
                    <g id="Icons/Calendar" transform="translate(875.000000, 14.000000)">
                        <mask id="mask-2" fill="white">
                            <use xlink:href="#path-1"></use>
                        </mask>
                        <use id="Icon" fill="#4F5B63" fill-rule="nonzero" transform="translate(8.000000, 3.999997) scale(1, -1) rotate(90.000000) translate(-8.000000, -3.999997) " xlink:href="#path-1"></use>
                    </g>
                </g>
            </g>
        </g>
    </g>
</svg>