<?xml version="1.0" encoding="UTF-8"?>
<svg width="18px" height="18px" viewBox="0 0 18 18" version="1.1" xmlns="http://www.w3.org/2000/svg" xmlns:xlink="http://www.w3.org/1999/xlink">
    <title>calendar</title>
    <g id="Book-Menu-&gt;Search-Book" stroke="none" stroke-width="1" fill="none" fill-rule="evenodd">
        <g id="1.0-Search-Results-(Light)" transform="translate(-747.000000, -749.000000)" fill="#3FC686" fill-rule="nonzero">
            <g id="Effective-Date" transform="translate(285.000000, 706.000000)">
                <g id="Company-Dropdown" transform="translate(0.000000, 34.000000)">
                    <g id="Shape" transform="translate(462.000000, 9.000000)">
                        <path d="M16.9746667,1.49333333 L13.4333333,1.49333333 L13.4333333,0 L12.1533333,0 L12.1533333,1.49333333 L5.49733333,1.49333333 L5.49733333,0 L4.21733333,0 L4.21733333,1.49333333 L0.676,1.49333333 C0.313333333,1.49333333 0.036,1.77066667 0.036,2.13333333 L0.036,17.344 C0.036,17.7066667 0.313333333,17.984 0.676,17.984 L16.9746667,17.984 C17.3373333,17.984 17.6146667,17.7066667 17.6146667,17.344 L17.6146667,2.13333333 C17.6146667,1.792 17.3373333,1.49333333 16.9746667,1.49333333 Z M4.40933333,14.6986667 C3.70533333,14.6986667 3.15066667,14.144 3.15066667,13.44 C3.15066667,12.736 3.70533333,12.1813333 4.40933333,12.1813333 C5.11333333,12.1813333 5.668,12.736 5.668,13.44 C5.668,14.144 5.11333333,14.6986667 4.40933333,14.6986667 Z M4.40933333,10.944 C3.70533333,10.944 3.15066667,10.3893333 3.15066667,9.68533333 C3.15066667,8.98133333 3.70533333,8.42666667 4.40933333,8.42666667 C5.11333333,8.42666667 5.668,8.98133333 5.668,9.68533333 C5.668,10.3893333 5.11333333,10.944 4.40933333,10.944 Z M8.82533333,14.6986667 C8.12133333,14.6986667 7.56666667,14.144 7.56666667,13.44 C7.56666667,12.736 8.12133333,12.1813333 8.82533333,12.1813333 C9.52933333,12.1813333 10.084,12.736 10.084,13.44 C10.084,14.1226667 9.52933333,14.6986667 8.82533333,14.6986667 Z M8.82533333,10.944 C8.12133333,10.944 7.56666667,10.3893333 7.56666667,9.68533333 C7.56666667,8.98133333 8.12133333,8.42666667 8.82533333,8.42666667 C9.52933333,8.42666667 10.084,8.98133333 10.084,9.68533333 C10.084,10.368 9.52933333,10.944 8.82533333,10.944 Z M13.2413333,14.6986667 C12.5373333,14.6986667 11.9826667,14.144 11.9826667,13.44 C11.9826667,12.736 12.5373333,12.1813333 13.2413333,12.1813333 C13.9453333,12.1813333 14.5,12.736 14.5,13.44 C14.5,14.144 13.9453333,14.6986667 13.2413333,14.6986667 Z M13.2413333,10.944 C12.5373333,10.944 11.9826667,10.3893333 11.9826667,9.68533333 C11.9826667,8.98133333 12.5373333,8.42666667 13.2413333,8.42666667 C13.9453333,8.42666667 14.5,8.98133333 14.5,9.68533333 C14.5,10.3893333 13.9453333,10.944 13.2413333,10.944 Z M16.3346667,5.03466667 L16.3346667,5.29066667 L1.316,5.29066667 L1.316,2.77333333 L4.21733333,2.77333333 L4.21733333,4.30933333 L5.49733333,4.30933333 L5.49733333,2.77333333 L12.1533333,2.77333333 L12.1533333,4.30933333 L13.4333333,4.30933333 L13.4333333,2.77333333 L16.3346667,2.77333333 L16.3346667,5.03466667 Z"></path>
                    </g>
                </g>
            </g>
        </g>
    </g>
</svg>