<?xml version="1.0" encoding="UTF-8"?>
<svg width="15px" height="16px" viewBox="0 0 15 16" version="1.1" xmlns="http://www.w3.org/2000/svg" xmlns:xlink="http://www.w3.org/1999/xlink">
    <title>Group</title>
    <g id="Login" stroke="none" stroke-width="1" fill="none" fill-rule="evenodd">
        <g id="1.0-Login-(Light)" transform="translate(-555.000000, -620.000000)">
            <g id="Remember" transform="translate(555.000000, 618.800000)">
                <g id="Group" transform="translate(0.000000, 2.000000)">
                    <rect id="Background" fill="#8DC63F" x="-3.37507799e-14" y="-1.42108547e-14" width="14.4413166" height="14.4413166" rx="1.1"></rect>
                    <path d="M10.9822589,4.24262968 C10.8373716,4.09786801 10.6003747,4.09786801 10.45599,4.24262968 L5.78742623,8.91169606 C5.64253891,9.05658339 5.40554194,9.05658339 5.26115726,8.91169606 L4.11110625,7.76214769 C3.96634458,7.61738602 3.72922195,7.61738602 3.58483727,7.76214769 L2.87950113,8.46798647 C2.73473947,8.61274814 2.73473947,8.84987076 2.87950113,8.99425545 L5.26115726,11.3754089 C5.40604459,11.5201706 5.64304155,11.5201706 5.78742623,11.3754089 L11.6875951,5.47423479 C11.8323568,5.32947313 11.8323568,5.0923505 11.6875951,4.94746317 L10.9822589,4.24262968 Z" id="Checkmark" fill="#FFFFFF"></path>
                </g>
            </g>
        </g>
    </g>
</svg>