<?xml version="1.0" encoding="UTF-8"?>
<svg width="16px" height="21px" viewBox="0 0 16 21" version="1.1" xmlns="http://www.w3.org/2000/svg" xmlns:xlink="http://www.w3.org/1999/xlink">
    <title>document</title>
    <g id="Page-1" stroke="none" stroke-width="1" fill="none" fill-rule="evenodd">
        <g id="1.0-Search-Report-(Light)" transform="translate(-1061.000000, -179.000000)" fill="#FFFFFF" fill-rule="nonzero">
            <g id="Download" transform="translate(1054.000000, 170.000000)">
                <g id="Group" transform="translate(7.000000, 9.000000)">
                    <g id="document" transform="translate(0.000000, 0.000000)">
                        <path d="M7.43741892,14.2065467 C7.67735114,14.4466388 8.0662013,14.4464789 8.30597357,14.2065467 L10.9375502,11.5749701 C11.1774824,11.3351978 11.1774824,10.9461877 10.9375502,10.7064155 C10.6977779,10.4664832 10.3089277,10.4664832 10.0689955,10.7064155 L8.48592273,12.2894882 L8.48592273,7.85122203 C8.48592273,7.51195788 8.21080045,7.23699555 7.87169625,7.23699555 C7.5324321,7.23699555 7.25746976,7.51195788 7.25746976,7.85122203 L7.25746976,12.2894882 L5.67439699,10.7064155 C5.43446477,10.4664832 5.04561461,10.4664832 4.80568239,10.7064155 C4.56591012,10.9461877 4.56591012,11.3351978 4.80568239,11.5749701 L7.43741892,14.2065467 Z" id="Path"></path>
                        <path d="M10.5032728,15.7897794 L5.23995972,15.7897794 C4.90085552,15.7897794 4.62573324,16.0647417 4.62573324,16.4040058 C4.62573324,16.7431101 4.90085552,17.0182323 5.23995972,17.0182323 L10.5032728,17.0182323 C10.842377,17.0182323 11.1174993,16.7431101 11.1174993,16.4040058 C11.1174993,16.0647417 10.842537,15.7897794 10.5032728,15.7897794 Z" id="Path"></path>
                        <path d="M13.7927435,0 L4.58206559,0 C4.41923157,0 4.26295573,0.0647816889 4.14778826,0.179949154 L0.20042337,4.12731404 C0.085255905,4.24248151 0.020474216,4.39875735 0.020474216,4.56159137 L0.020474216,19.0355825 C0.020474216,20.0997618 0.886309607,20.9655972 1.95048897,20.9655972 L13.7927435,20.9655972 C14.8538838,20.9655972 15.7227583,20.1075996 15.7227583,19.0355825 L15.7227583,1.93001475 C15.7227583,0.868874543 14.8649207,0 13.7927435,0 Z M4.62573324,1.43911344 L4.62573324,3.9036972 C4.62573324,4.2906279 4.31110211,4.60525902 3.92417141,4.60525902 L1.45958766,4.60525902 L4.62573324,1.43911344 Z M14.4943054,19.0355825 C14.4943054,19.4177145 14.1854326,19.7371443 13.7927435,19.7371443 L1.95048897,19.7371443 C1.56371825,19.7371443 1.24892718,19.4223532 1.24892718,19.0355825 L1.24892718,5.83387193 L3.92417141,5.83387193 C4.98835077,5.83387193 5.8541862,4.96803654 5.8541862,3.90385718 L5.8541862,1.22845296 L13.7927435,1.22845296 C14.1750356,1.22845296 14.4943054,1.53748566 14.4943054,1.93001475 L14.4943054,19.0355825 Z" id="Shape"></path>
                    </g>
                </g>
            </g>
        </g>
    </g>
</svg>