<?xml version="1.0" encoding="UTF-8"?>
<svg width="22px" height="20px" viewBox="0 0 22 20" version="1.1" xmlns="http://www.w3.org/2000/svg" xmlns:xlink="http://www.w3.org/1999/xlink">
    <title>export</title>
    <g id="Page-1" stroke="none" stroke-width="1" fill="none" fill-rule="evenodd">
        <g id="1.0-Search-Report-(Light)" transform="translate(-925.000000, -179.000000)" fill="#FFFFFF" fill-rule="nonzero">
            <g id="Export" transform="translate(916.000000, 170.000000)">
                <g id="XMLID_223_" transform="translate(9.000000, 9.000000)">
                    <path d="M21.749971,13.6990876 C21.7587045,13.6884997 21.7662417,13.6772538 21.7744369,13.6663668 C21.7838284,13.6538647 21.793519,13.6416018 21.8021927,13.6285613 C21.8108665,13.6156405 21.8183438,13.6021813 21.8262399,13.5889613 C21.8332985,13.5771172 21.8407758,13.5655124 21.8472961,13.5533094 C21.8545341,13.5398502 21.8606356,13.5259124 21.8671559,13.5121541 C21.8731976,13.4994127 21.8795384,13.4868508 21.8849819,13.4736906 C21.8904852,13.4603511 21.8949716,13.4467124 21.8998169,13.4331335 C21.9049015,13.4190761 21.9102852,13.4051982 21.914652,13.3907819 C21.9187196,13.3772628 21.9217106,13.3636242 21.9251801,13.3499257 C21.9288888,13.3352103 21.9330163,13.3206145 21.9360073,13.3056 C21.9391178,13.2899873 21.9409124,13.274255 21.9431855,13.2584628 C21.9450997,13.2452429 21.9476121,13.2322024 21.9489281,13.2187432 C21.9517994,13.1897311 21.9534145,13.1605396 21.9534145,13.1314079 C21.9534145,13.1309891 21.9534145,13.1306302 21.9534145,13.1302115 C21.9534145,13.1297329 21.9534145,13.1291946 21.9534145,13.128716 C21.9534145,13.0996441 21.9518592,13.070632 21.9489879,13.0416798 C21.9476719,13.0282205 21.9451595,13.0152399 21.9432453,13.0019601 C21.9409722,12.9862278 21.9391776,12.9704955 21.9360671,12.9548828 C21.9330761,12.9397486 21.9288888,12.9250332 21.9251801,12.9101982 C21.9217704,12.8966792 21.9187795,12.8831003 21.9147716,12.8697009 C21.9104048,12.8552248 21.9049613,12.8412272 21.8998169,12.8270502 C21.8949716,12.8135909 21.890545,12.8000121 21.8851015,12.7867921 C21.8795982,12.7735722 21.8731976,12.7609505 21.8671559,12.7480894 C21.8606955,12.7343909 21.8546538,12.7206326 21.8474755,12.7072332 C21.8408955,12.6949106 21.8333583,12.6832459 21.8262399,12.671342 C21.8184036,12.6581221 21.8109263,12.6448423 21.8023124,12.6319813 C21.793519,12.618881 21.7837686,12.6066181 21.774377,12.5939964 C21.7662417,12.5831094 21.7587045,12.5719831 21.7500308,12.561455 C21.732145,12.5396211 21.7131825,12.5187444 21.6933227,12.4987051 C21.6923656,12.497748 21.6915879,12.4966713 21.6906308,12.4957142 L19.4474882,10.252452 C19.0971299,9.90209366 18.5289716,9.90203384 18.1785535,10.2523921 C17.8281353,10.6028103 17.8281353,11.1709088 18.1785535,11.5213269 L18.8900375,12.2328707 L16.1510574,12.2329903 L16.1510574,7.53093897 C16.1512369,7.52298308 16.1522538,7.51520665 16.1522538,7.50725076 C16.1522538,7.29154441 16.0752671,7.09432205 15.9484514,6.939571 C15.9471952,6.93801571 15.945939,6.9364006 15.944623,6.93484532 C15.928113,6.9149855 15.9107057,6.89596314 15.8925208,6.87753897 C15.8899486,6.87490695 15.8873166,6.87221511 15.8846846,6.86958308 C15.8767885,6.86174683 15.8694308,6.85331239 15.8611758,6.84577523 L9.30833293,0.292872508 C9.30803384,0.292633233 9.30773474,0.292334139 9.30743565,0.292035045 C9.2890713,0.273730514 9.26992931,0.256562538 9.25030876,0.240112387 C9.24408761,0.234908157 9.23762719,0.230003021 9.2312864,0.224978248 C9.21692991,0.213612689 9.20239396,0.202606042 9.18743927,0.192197583 C9.17996193,0.186933535 9.17242477,0.181789124 9.16476798,0.17676435 C9.14903565,0.166475529 9.13306405,0.156844713 9.11679335,0.147632628 C9.11009366,0.143864048 9.10363323,0.139736556 9.0968139,0.136087613 C9.0750997,0.124482779 9.05296677,0.113835045 9.03047492,0.104144411 C9.02126284,0.100136556 9.0118713,0.0967268882 9.00253958,0.0930181269 C8.98758489,0.0870960725 8.97257039,0.0815329305 8.95731662,0.0764483384 C8.94684834,0.072978852 8.93638006,0.069629003 8.92579215,0.066518429 C8.90850453,0.0614936556 8.89103746,0.0570670695 8.87345076,0.0530592145 C8.8656145,0.0513244713 8.8579577,0.0491111782 8.85000181,0.0474960725 C8.82487795,0.0424712991 8.7995148,0.0387625378 8.77403202,0.0359510574 C8.76625559,0.0350537764 8.75835952,0.0345752266 8.75052326,0.0338574018 C8.72940725,0.0320030211 8.70829124,0.0309861027 8.68711541,0.0306271903 C8.68256918,0.0305075529 8.67826224,0.0299093656 8.67371601,0.0299093656 L0.897280967,0.0299093656 C0.401742598,0.0299093656 0,0.431651964 0,0.927190332 L0,18.8728097 C0,19.368348 0.401742598,19.7700906 0.897280967,19.7700906 L15.2537764,19.7700906 C15.7493148,19.7700906 16.1510574,19.368348 16.1510574,18.8728097 L16.1510574,14.0275523 L18.8899178,14.0276121 L18.1784937,14.7390363 C17.8280755,15.0894544 17.8280755,15.6575529 18.1784937,16.007971 C18.3537027,16.1831801 18.5833468,16.2708145 18.8129311,16.2708145 C19.0425154,16.2708145 19.2722193,16.1832399 19.4473686,16.007971 L21.6905112,13.7648284 C21.6909897,13.7643498 21.6913486,13.7638713 21.6917674,13.7634526 C21.7122852,13.7428749 21.7316665,13.7214 21.749971,13.6990876 Z M9.57099698,3.09340604 L13.0875607,6.60996979 L9.57099698,6.60996979 L9.57099698,3.09340604 Z M14.3564955,17.9755287 L1.79456193,17.9755287 L1.79456193,1.8244713 L7.77643505,1.8244713 L7.77643505,7.50725076 C7.77643505,8.00278912 8.17817764,8.40453172 8.67371601,8.40453172 L14.3564955,8.40453172 L14.3564955,12.2329903 L10.4682181,12.2329305 C9.97267976,12.2329305 9.57093716,12.6346731 9.57093716,13.1302115 C9.57093716,13.6257498 9.97267976,14.0274924 10.4682181,14.0274924 L14.3564955,14.0275523 L14.3564955,17.9755287 Z"></path>
                </g>
            </g>
        </g>
    </g>
</svg>