<?xml version="1.0" encoding="UTF-8"?>
<svg width="23px" height="18px" viewBox="0 0 23 18" version="1.1" xmlns="http://www.w3.org/2000/svg" xmlns:xlink="http://www.w3.org/1999/xlink">
    <title>folder</title>
    <g id="Book-Menu-&gt;Upload-Book" stroke="none" stroke-width="1" fill="none" fill-rule="evenodd">
        <g id="1.0-Upload-Book-(Light)" transform="translate(-1249.000000, -186.000000)" fill="#3FC686" fill-rule="nonzero">
            <g id="Browse-File" transform="translate(285.000000, 131.000000)">
                <g transform="translate(16.000000, 46.000000)" id="Group">
                    <g transform="translate(948.000000, 9.000000)" id="Path">
                        <path d="M20.3349901,4.74384236 L9.4023399,4.74384236 C8.79135961,4.74384236 8.2503399,4.35418227 8.05646305,3.77436946 L7.97324631,3.52276847 C7.65066502,2.55617734 6.74933498,1.90640394 5.73069458,1.90640394 L2.36451724,1.90640394 C1.06120197,1.90640394 0,2.96760591 0,4.27092118 L0,15.6206749 C0,16.9239901 1.06120197,17.9851921 2.36451724,17.9851921 L20.3349458,17.9851921 C21.6382611,17.9851921 22.6994631,16.9239901 22.6994631,15.6206749 L22.6994631,7.10835961 C22.6994631,5.80504433 21.6383054,4.74384236 20.3349901,4.74384236 Z"></path>
                        <path d="M19.3891478,0.0147635468 L5.73069458,0.0147635468 C5.46965025,0.0147635468 5.2577734,0.226640394 5.2577734,0.487684729 C5.2577734,0.748729064 5.46965025,0.960605911 5.73069458,0.960605911 C7.15699507,0.960605911 8.41965517,1.87049261 8.87080788,3.22297537 L8.95402463,3.47550739 C9.01835468,3.66938424 9.19897537,3.7999064 9.40327094,3.7999064 L20.3349901,3.798 C20.5865911,3.798 20.8485665,3.83581773 21.1616158,3.91717241 C21.2013399,3.92759113 21.241064,3.93229064 21.2807882,3.93229064 C21.383867,3.93229064 21.4860148,3.89824138 21.5702069,3.83391133 C21.6856108,3.74404433 21.7537094,3.60598522 21.7537094,3.45936946 L21.7537094,2.37923645 C21.7537094,1.07596552 20.6925074,0.0147635468 19.3891478,0.0147635468 Z"></path>
                    </g>
                </g>
            </g>
        </g>
    </g>
</svg>