<?xml version="1.0" encoding="UTF-8"?>
<svg width="32px" height="26px" viewBox="0 0 32 26" version="1.1" xmlns="http://www.w3.org/2000/svg" xmlns:xlink="http://www.w3.org/1999/xlink">
    <title>Hide</title>
    <defs>
        <rect id="path-1" x="0" y="0" width="32" height="26" rx="3"></rect>
    </defs>
    <g id="Book-Menu-&gt;Create-New-Book" stroke="none" stroke-width="1" fill="none" fill-rule="evenodd" opacity="0.600120908">
        <g id="2.1-Create-Book-Step-2-Pop-up-(Light)" transform="translate(-725.000000, -549.000000)">
            <g id="Select-Position-Pop-up" transform="translate(233.000000, 413.000000)">
                <g id="Check-Box-1" transform="translate(30.000000, 136.000000)">
                    <g id="Hide" transform="translate(462.000000, 0.000000)">
                        <mask id="mask-2" fill="white">
                            <use xlink:href="#path-1"></use>
                        </mask>
                        <use id="Rectangle" fill="#E9E9E9" xlink:href="#path-1"></use>
                        <g id="Group" mask="url(#mask-2)" opacity="0.230492001">
                            <g transform="translate(6.000000, 5.000000)" id="hide">
                                <g transform="translate(0.000000, -0.000000)" fill="#000000" fill-rule="nonzero">
                                    <path d="M17.74611,0.216334012 C17.4609776,-0.0728716904 16.9966191,-0.0687983707 16.7074134,0.216334012 L14.1004888,2.82325866 C10.8703462,1.35686354 7.42431772,1.71531568 4.13714868,3.86195519 C1.6890835,5.45869654 0.202321792,7.46684318 0.141221996,7.55238289 C-0.0542973523,7.821222 -0.0461507128,8.18782077 0.161588595,8.44851324 C1.55466395,10.1593075 3.01291242,11.4912831 4.50374745,12.42 L2.21046843,14.713279 C1.92533605,14.9984114 1.92533605,15.4627699 2.21046843,15.7519756 C2.35303462,15.8945418 2.54040733,15.9678615 2.72778004,15.9678615 C2.91515275,15.9678615 3.10252546,15.8945418 3.24509165,15.7519756 L17.74611,1.25503055 C18.0312424,0.969898167 18.0312424,0.505539715 17.74611,0.216334012 Z M8.16566191,8.75808554 C8.0597556,8.51775967 8.00680244,8.25706721 8.00680244,7.98415479 C8.00680244,7.45869654 8.21046843,6.96175153 8.58521385,6.58700611 C9.17177189,6.00044807 10.039389,5.86195519 10.7562933,6.16745418 L8.16566191,8.75808554 Z M11.8397963,5.08802444 C10.5078208,4.23262729 8.71148676,4.38741344 7.55059063,5.54830957 C6.89885947,6.20004073 6.54448065,7.06358452 6.54448065,7.98008147 C6.54448065,8.64810591 6.73592668,9.28761711 7.0903055,9.83751527 L5.57910387,11.3487169 C4.25527495,10.5829328 2.95181263,9.4505499 1.68501018,7.97193483 C2.22676171,7.33649695 3.37136456,6.1104277 4.93959267,5.08802444 C7.65242363,3.32020367 10.3530346,2.93731161 12.9843992,3.94342159 L11.8397963,5.08802444 Z" id="Shape"></path>
                                    <path d="M19.7990631,7.51979633 C18.7929532,6.28150713 17.7501833,5.23873727 16.6911202,4.41185336 C16.3693279,4.16338086 15.9090428,4.22040733 15.6564969,4.53812627 C15.4080244,4.85584521 15.4650509,5.31613035 15.7827699,5.56867617 C16.6218737,6.22448065 17.4609776,7.0391446 18.2756415,7.99230143 C17.7949898,8.55441955 16.8581263,9.56460285 15.5872505,10.4892464 C13.1391853,12.2692872 10.6666802,12.9128717 8.24305499,12.3996334 C7.84794297,12.3140937 7.45690428,12.5707128 7.37543788,12.9658248 C7.28989817,13.3609369 7.54651731,13.7519756 7.94162933,13.833442 C8.57299389,13.9678615 9.20843177,14.0330346 9.84794297,14.0330346 C10.8092464,14.0330346 11.7786965,13.8823218 12.7440733,13.5808961 C14.0108758,13.1857841 15.2695316,12.534053 16.4874542,11.6460692 C18.5404073,10.1430143 19.7664766,8.48517312 19.8194297,8.41592668 C20.0149491,8.14708758 20.0068024,7.7804888 19.7990631,7.51979633 Z" id="Path"></path>
                                </g>
                            </g>
                        </g>
                    </g>
                </g>
            </g>
        </g>
    </g>
</svg>