<?xml version="1.0" encoding="UTF-8"?>
<svg width="16px" height="15px" viewBox="0 0 16 15" version="1.1" xmlns="http://www.w3.org/2000/svg" xmlns:xlink="http://www.w3.org/1999/xlink">
    <title>Less</title>
    <defs>
        <path d="M11.7037602,-3.74881418 C12.0756745,-3.39218485 12.1007992,-2.78769218 11.7598777,-2.39864201 L6.152,4 L11.7598777,10.398642 C12.0723891,10.7552713 12.07732,11.2929322 11.7895028,11.6547611 L11.7037602,11.7488142 C11.3318459,12.1054435 10.7539783,12.0791612 10.4130568,11.690111 L10.4130568,11.690111 L4.2401274,4.64573451 C4.23618936,4.64124054 4.23230017,4.63671781 4.22845978,4.63216705 L4.29624494,4.70443765 C4.25441962,4.66433128 4.21698021,4.62109014 4.18395408,4.5753732 C4.17181285,4.55839562 4.16025577,4.54124071 4.14930506,4.52380372 C4.13813207,4.50615825 4.12751031,4.48791324 4.11752147,4.46938486 C4.10845608,4.45248885 4.1000408,4.43572906 4.09213673,4.41878243 C4.08280584,4.39877732 4.07402539,4.37808235 4.06597785,4.35714125 C4.05880228,4.33860082 4.05223111,4.31983045 4.0462436,4.3009096 C4.04038277,4.28215141 4.0350772,4.26344174 4.03032783,4.24460455 C4.0249724,4.22367705 4.02037251,4.20253415 4.01646849,4.18128598 C4.01252485,4.15945144 4.00923725,4.13747971 4.00668202,4.11542633 C4.00477289,4.09939916 4.00328826,4.083068 4.00220448,4.06671671 C4.0007386,4.04419473 3.99999807,4.0218119 4.00000519,3.99942296 C4.00002034,3.97751997 4.00076079,3.95547196 4.00222495,3.93347297 C4.00328826,3.916932 4.00477289,3.90060084 4.00665912,3.88430717 C4.00923725,3.86252029 4.01252485,3.84054856 4.01654302,3.81870181 C4.02037251,3.79746585 4.0249724,3.77632295 4.0302698,3.75532481 C4.0350772,3.73655826 4.04038277,3.71784859 4.04624335,3.69929534 C4.05223111,3.68016955 4.05880228,3.66139918 4.06595835,3.64280944 C4.07402539,3.62191765 4.08280584,3.60122268 4.09231738,3.58081784 C4.1000408,3.56427094 4.10845608,3.54751115 4.11738359,3.53096271 C4.12751031,3.51208676 4.13813207,3.49384175 4.14938529,3.47591567 C4.16025577,3.45875929 4.17181285,3.44160438 4.18397761,3.42476304 C4.21698021,3.37890986 4.25441962,3.33566872 4.29624494,3.29556235 L4.22845978,3.36783295 C4.23230017,3.36328219 4.23618936,3.35875946 4.2401274,3.35426549 L10.4130568,-3.69011104 C10.7539783,-4.07916121 11.3318459,-4.1054435 11.7037602,-3.74881418 Z" id="path-1"></path>
    </defs>
    <g id="Book-Menu-&gt;Create-New-Book" stroke="none" stroke-width="1" fill="none" fill-rule="evenodd">
        <g id="1.0-Create-Book-Step-1-(Light)" transform="translate(-1236.000000, -605.000000)">
            <g id="Select-Main" transform="translate(285.000000, 338.000000)">
                <g id="02" transform="translate(31.000000, 253.000000)">
                    <g id="Less" transform="translate(920.000000, 14.000000)">
                        <path d="M11.7037602,3.25118582 C12.0756745,3.60781515 12.1007992,4.21230782 11.7598777,4.60135799 L6.152,11 L11.7598777,17.398642 C12.0723891,17.7552713 12.07732,18.2929322 11.7895028,18.6547611 L11.7037602,18.7488142 C11.3318459,19.1054435 10.7539783,19.0791612 10.4130568,18.690111 L10.4130568,18.690111 L4.2401274,11.6457345 C4.23618936,11.6412405 4.23230017,11.6367178 4.22845978,11.6321671 L4.29624494,11.7044377 C4.25441962,11.6643313 4.21698021,11.6210901 4.18395408,11.5753732 C4.17181285,11.5583956 4.16025577,11.5412407 4.14930506,11.5238037 C4.13813207,11.5061582 4.12751031,11.4879132 4.11752147,11.4693849 C4.10845608,11.4524889 4.1000408,11.4357291 4.09213673,11.4187824 C4.08280584,11.3987773 4.07402539,11.3780824 4.06597785,11.3571412 C4.05880228,11.3386008 4.05223111,11.3198305 4.0462436,11.3009096 C4.04038277,11.2821514 4.0350772,11.2634417 4.03032783,11.2446045 C4.0249724,11.223677 4.02037251,11.2025341 4.01646849,11.181286 C4.01252485,11.1594514 4.00923725,11.1374797 4.00668202,11.1154263 C4.00477289,11.0993992 4.00328826,11.083068 4.00220448,11.0667167 C4.0007386,11.0441947 3.99999807,11.0218119 4.00000519,10.999423 C4.00002034,10.97752 4.00076079,10.955472 4.00222495,10.933473 C4.00328826,10.916932 4.00477289,10.9006008 4.00665912,10.8843072 C4.00923725,10.8625203 4.01252485,10.8405486 4.01654302,10.8187018 C4.02037251,10.7974659 4.0249724,10.776323 4.0302698,10.7553248 C4.0350772,10.7365583 4.04038277,10.7178486 4.04624335,10.6992953 C4.05223111,10.6801695 4.05880228,10.6613992 4.06595835,10.6428094 C4.07402539,10.6219176 4.08280584,10.6012227 4.09231738,10.5808178 C4.1000408,10.5642709 4.10845608,10.5475111 4.11738359,10.5309627 C4.12751031,10.5120868 4.13813207,10.4938418 4.14938529,10.4759157 C4.16025577,10.4587593 4.17181285,10.4416044 4.18397761,10.424763 C4.21698021,10.3789099 4.25441962,10.3356687 4.29624494,10.2955623 L4.22845978,10.3678329 C4.23230017,10.3632822 4.23618936,10.3587595 4.2401274,10.3542655 L10.4130568,3.30988896 C10.7539783,2.92083879 11.3318459,2.8945565 11.7037602,3.25118582 Z" id="Icon" fill="#8DC63F" fill-rule="nonzero" transform="translate(8.000000, 11.000000) scale(1, -1) rotate(90.000000) translate(-8.000000, -11.000000) "></path>
                        <mask id="mask-2" fill="white">
                            <use xlink:href="#path-1"></use>
                        </mask>
                        <use id="Icon" fill="#8DC63F" fill-rule="nonzero" transform="translate(8.000000, 4.000000) scale(1, -1) rotate(90.000000) translate(-8.000000, -4.000000) " xlink:href="#path-1"></use>
                    </g>
                </g>
            </g>
        </g>
    </g>
</svg>