<?xml version="1.0" encoding="UTF-8"?>
<svg width="22px" height="20px" viewBox="0 0 22 20" version="1.1" xmlns="http://www.w3.org/2000/svg" xmlns:xlink="http://www.w3.org/1999/xlink">
    <title>printer</title>
    <g id="Page-1" stroke="none" stroke-width="1" fill="none" fill-rule="evenodd">
        <g id="1.0-Search-Report-(Light)" transform="translate(-1215.000000, -179.000000)" fill="#FFFFFF" fill-rule="nonzero">
            <g id="Print" transform="translate(1206.000000, 170.000000)">
                <g id="printer" transform="translate(9.000000, 9.000000)">
                    <path d="M19.9531391,4.62984762 L17.5485573,4.62984762 L17.5485573,0.703849689 C17.5485573,0.345304348 17.2579478,0.0547813665 16.899489,0.0547813665 L4.56814286,0.0547813665 C4.20968406,0.0547813665 3.91907453,0.345304348 3.91907453,0.703849689 L3.91907453,4.62984762 L1.51449275,4.62984762 C0.67944472,4.62984762 0,5.3092058 0,6.14434037 L0,14.471887 C0,15.306935 0.67944472,15.9863797 1.51449275,15.9863797 L3.91907453,15.9863797 L3.91907453,19.2060182 C3.91907453,19.5645636 4.20968406,19.8550865 4.56814286,19.8550865 L16.8994025,19.8550865 C17.2578613,19.8550865 17.5484708,19.5645636 17.5484708,19.2060182 L17.5484708,15.9863797 L19.9530526,15.9863797 C20.7881006,15.9863797 21.4675453,15.306935 21.4675453,14.471887 L21.4675453,6.14434037 C21.4675453,5.30929234 20.7881872,4.62984762 19.9531391,4.62984762 Z M5.21721118,1.35291801 L16.2503342,1.35291801 L16.2503342,4.62984762 L5.21721118,4.62984762 L5.21721118,1.35291801 Z M16.2503342,18.5569499 L5.21721118,18.5569499 L5.21721118,12.117846 L16.2503342,12.117846 L16.2503342,18.5569499 Z M20.1694952,14.471887 C20.1694952,14.589152 20.0704041,14.6882431 19.9531391,14.6882431 L17.5485573,14.6882431 L17.5485573,11.4687776 C17.5485573,11.1102323 17.2579478,10.8197093 16.899489,10.8197093 L4.56814286,10.8197093 C4.20968406,10.8197093 3.91907453,11.1102323 3.91907453,11.4687776 L3.91907453,14.6882431 L1.51449275,14.6882431 C1.39722774,14.6882431 1.29813665,14.589152 1.29813665,14.471887 L1.29813665,6.14434037 C1.29813665,6.02698882 1.39722774,5.92798427 1.51449275,5.92798427 L4.56814286,5.92798427 L16.8994025,5.92798427 L19.9530526,5.92798427 C20.0703176,5.92798427 20.1694952,6.02698882 20.1694952,6.14434037 L20.1694952,14.471887 L20.1694952,14.471887 Z" id="Shape"></path>
                    <circle id="Oval" cx="16.8994025" cy="8.37384679" r="1"></circle>
                    <path d="M13.6867739,13.3986741 L7.78077143,13.3986741 C7.42231263,13.3986741 7.13170311,13.6891971 7.13170311,14.0477424 C7.13170311,14.4062878 7.42231263,14.6968108 7.78077143,14.6968108 L13.6867739,14.6968108 C14.0452327,14.6968108 14.3358422,14.4062878 14.3358422,14.0477424 C14.3358422,13.6892836 14.0453193,13.3986741 13.6867739,13.3986741 Z" id="Path"></path>
                    <path d="M13.6867739,15.9777255 L7.78077143,15.9777255 C7.42231263,15.9777255 7.13170311,16.2682484 7.13170311,16.6267938 C7.13170311,16.9853391 7.42231263,17.2758621 7.78077143,17.2758621 L13.6867739,17.2758621 C14.0452327,17.2758621 14.3358422,16.9853391 14.3358422,16.6267938 C14.3358422,16.2682484 14.0453193,15.9777255 13.6867739,15.9777255 Z" id="Path"></path>
                </g>
            </g>
        </g>
    </g>
</svg>