<?xml version="1.0" encoding="UTF-8"?>
<svg width="28px" height="28px" viewBox="0 0 28 28" version="1.1" xmlns="http://www.w3.org/2000/svg" xmlns:xlink="http://www.w3.org/1999/xlink">
    <title>remove</title>
    <g id="Book-Menu-&gt;Create-New-Book" stroke="none" stroke-width="1" fill="none" fill-rule="evenodd">
        <g id="3.0-Create-Book-Step-3-(Light)" transform="translate(-1229.000000, -503.000000)" fill="#EE4949" fill-rule="nonzero">
            <g id="Director-Setting" transform="translate(285.000000, 440.000000)">
                <g id="Director-1" transform="translate(16.000000, 59.000000)">
                    <g id="remove" transform="translate(928.000000, 4.000000)">
                        <path d="M14,28 C6.28009036,28 0,21.7199096 0,14 C0,6.28009036 6.28009036,0 14,0 C21.7199096,0 28,6.28009036 28,14 C28,21.7199096 21.7199096,28 14,28 Z M14,1.75 C7.24502565,1.75 1.75,7.24502565 1.75,14 C1.75,20.7549744 7.24502565,26.25 14,26.25 C20.7549744,26.25 26.25,20.7549744 26.25,14 C26.25,7.24502565 20.7549744,1.75 14,1.75 Z" id="Shape"></path>
                        <path d="M9.05099486,18.9490051 C8.70919798,18.6072083 8.70919798,18.0530701 9.05099486,17.7112732 L17.7134094,9.04864505 C18.0554199,8.70684817 18.6095581,8.70684817 18.951355,9.04864505 C19.2931518,9.39044192 19.2931518,9.94458008 18.951355,10.2865906 L10.2887268,18.9490051 C10.1161194,19.1205444 9.89224245,19.2055664 9.66943359,19.2055664 C9.44534303,19.2055664 9.22125247,19.1205444 9.05099486,18.9490051 Z" id="Path"></path>
                        <path d="M17.7123413,18.9490051 L9.04992676,10.2876587 C8.70791627,9.94586184 8.70791627,9.39172363 9.04992676,9.04992676 C9.39172363,8.70791627 9.94586184,8.70791627 10.2876587,9.04992676 L18.9500732,17.7123413 C19.2920837,18.0541382 19.2920837,18.6082764 18.9500732,18.9500732 C18.7787475,19.1205444 18.554657,19.2055664 18.3305664,19.2055664 C18.1066895,19.2055664 17.8825989,19.1205444 17.7123413,18.9490051 Z" id="Path"></path>
                    </g>
                </g>
            </g>
        </g>
    </g>
</svg>