<?xml version="1.0" encoding="UTF-8"?>
<svg width="12px" height="12px" viewBox="0 0 12 12" version="1.1" xmlns="http://www.w3.org/2000/svg" xmlns:xlink="http://www.w3.org/1999/xlink">
    <title>Search_icon</title>
    <g id="Book-Menu-&gt;Search-Book" stroke="none" stroke-width="1" fill="none" fill-rule="evenodd">
        <g id="1.0-Search-Results-(Light)" transform="translate(-310.000000, -169.000000)" fill="#4A4A4A" fill-rule="nonzero">
            <g id="Search" transform="translate(285.000000, 133.000000)">
                <g id="Input-Text" transform="translate(16.000000, 24.000000)">
                    <g id="Shape" transform="translate(9.000000, 12.000000)">
                        <path d="M11.8530612,11.1477551 L8.96816327,8.26285714 C9.68326531,7.39102041 10.1142857,6.27428571 10.1142857,5.05714286 C10.1142857,2.26530612 7.84897959,0 5.05714286,0 C2.26285714,0 0,2.26530612 0,5.05714286 C0,7.84897959 2.26285714,10.1142857 5.05714286,10.1142857 C6.27428571,10.1142857 7.38857143,9.68571429 8.26040816,8.97061224 L11.1453061,11.8530612 C11.3412245,12.0489796 11.6571429,12.0489796 11.8530612,11.8530612 C12.0489796,11.6595918 12.0489796,11.3412245 11.8530612,11.1477551 Z M5.05714286,9.1077551 C2.82122449,9.1077551 1.00408163,7.29061224 1.00408163,5.05714286 C1.00408163,2.82367347 2.82122449,1.00408163 5.05714286,1.00408163 C7.29061224,1.00408163 9.11020408,2.82367347 9.11020408,5.05714286 C9.11020408,7.29061224 7.29061224,9.1077551 5.05714286,9.1077551 Z"></path>
                    </g>
                </g>
            </g>
        </g>
    </g>
</svg>