<?xml version="1.0" encoding="UTF-8"?>
<svg width="40px" height="34px" viewBox="0 0 40 34" version="1.1" xmlns="http://www.w3.org/2000/svg" xmlns:xlink="http://www.w3.org/1999/xlink">
    <title>Show</title>
    <defs>
        <rect id="path-1" x="0" y="0" width="32" height="26" rx="3"></rect>
        <filter x="-20.3%" y="-21.2%" width="140.6%" height="150.0%" filterUnits="objectBoundingBox" id="filter-3">
            <feOffset dx="0" dy="1" in="SourceAlpha" result="shadowOffsetOuter1"></feOffset>
            <feGaussianBlur stdDeviation="2" in="shadowOffsetOuter1" result="shadowBlurOuter1"></feGaussianBlur>
            <feColorMatrix values="0 0 0 0 0.49852808   0 0 0 0 0.49852808   0 0 0 0 0.49852808  0 0 0 0.5 0" type="matrix" in="shadowBlurOuter1"></feColorMatrix>
        </filter>
    </defs>
    <g id="Book-Menu-&gt;Create-New-Book" stroke="none" stroke-width="1" fill="none" fill-rule="evenodd">
        <g id="2.1-Create-Book-Step-2-Pop-up-(Light)" transform="translate(-679.000000, -602.000000)">
            <g id="Select-Position-Pop-up" transform="translate(233.000000, 413.000000)">
                <g id="Check-Box-2" transform="translate(30.000000, 192.000000)">
                    <g id="Show" transform="translate(420.000000, 0.000000)">
                        <mask id="mask-2" fill="white">
                            <use xlink:href="#path-1"></use>
                        </mask>
                        <g id="Rectangle">
                            <use fill="black" fill-opacity="1" filter="url(#filter-3)" xlink:href="#path-1"></use>
                            <use fill="#FFFFFF" fill-rule="evenodd" xlink:href="#path-1"></use>
                        </g>
                        <g id="eye" mask="url(#mask-2)" fill="#8BC34A" fill-rule="nonzero">
                            <g transform="translate(5.000000, 6.000000)" id="Shape">
                                <path d="M21.6778203,5.95667187 C21.6293516,5.89608594 20.4692383,4.45646094 18.588668,3.00274219 C17.4780117,2.14418359 16.3443672,1.45866016 15.2192305,0.965292969 C13.7909492,0.338980469 12.3713477,0.0214414062 11,0.0214414062 C9.62860938,0.0214414062 8.20909375,0.339023437 6.78076953,0.965292969 C5.65563281,1.45861719 4.52198828,2.14414062 3.41128906,3.00274219 C1.53076172,4.45650391 0.370648438,5.89612891 0.322179688,5.95671484 L0,6.359375 L0.322222656,6.76207812 C0.370691406,6.82266406 1.53076172,8.26228906 3.41133203,9.71600781 C4.52198828,10.5745664 5.65563281,11.2600898 6.7808125,11.753457 C8.20909375,12.3797695 9.62865234,12.6973086 11.000043,12.6973086 C12.3713906,12.6973086 13.7909492,12.3797266 15.2192734,11.753457 C16.3444102,11.2601328 17.4780547,10.5746094 18.5887109,9.71600781 C20.4692383,8.26224609 21.6293945,6.82262109 21.6778633,6.76207812 L22,6.359375 L21.6778203,5.95667187 Z M17.7762148,8.71457813 C16.1812148,9.94339844 13.7108125,11.4081602 11,11.4081602 C8.28910156,11.4081602 5.81878516,9.94339844 4.22378516,8.71457813 C3.03441016,7.79826953 2.13889844,6.87134766 1.67762891,6.35963281 C2.81617187,5.09854297 6.60283594,1.31067578 11.000043,1.31067578 C13.7108984,1.31067578 16.1812578,2.7754375 17.7762578,4.00425781 C18.9657617,4.92065234 19.8613164,5.84761719 20.3226289,6.35941797 C19.8612734,6.87117578 18.9657188,7.79818359 17.7762148,8.71457813 Z"></path>
                                <path d="M11,2.01901563 C8.60672656,2.01901563 6.65964062,3.96614453 6.65964062,6.359375 C6.65964062,8.75260547 8.60676953,10.6997344 11,10.6997344 C13.3932305,10.6997344 15.3404023,8.75264844 15.3404023,6.359375 C15.3404023,3.96610156 13.3932734,2.01901563 11,2.01901563 Z M11,9.41054297 C9.31760156,9.41054297 7.94883203,8.04177344 7.94883203,6.359375 C7.94883203,4.67697656 9.31760156,3.30820703 11,3.30820703 C12.6823984,3.30820703 14.051168,4.67697656 14.051168,6.359375 C14.051168,8.04177344 12.6823984,9.41054297 11,9.41054297 Z"></path>
                                <path d="M11,4.36824609 C9.90210547,4.36824609 9.00887109,5.26148047 9.00887109,6.359375 C9.00887109,7.45726953 9.90210547,8.35054688 11,8.35054688 C12.0978945,8.35054688 12.9911289,7.4573125 12.9911289,6.359375 C12.9911289,5.2614375 12.0979375,4.36824609 11,4.36824609 Z M11,7.0613125 C10.6129805,7.0613125 10.2981055,6.7464375 10.2981055,6.359375 C10.2981055,5.9723125 10.6129805,5.65748047 11,5.65748047 C11.3870195,5.65748047 11.7018945,5.97235547 11.7018945,6.359375 C11.7019375,6.74639453 11.3870625,7.0613125 11,7.0613125 Z"></path>
                            </g>
                        </g>
                    </g>
                </g>
            </g>
        </g>
    </g>
</svg>