<?xml version="1.0" encoding="UTF-8"?>
<svg width="18px" height="18px" viewBox="0 0 18 18" version="1.1" xmlns="http://www.w3.org/2000/svg" xmlns:xlink="http://www.w3.org/1999/xlink">
    <title>Check</title>
    <g id="Template-Group" stroke="none" stroke-width="1" fill="none" fill-rule="evenodd">
        <g id="4.0-Coppy-Template-Group-(Light)" transform="translate(-370.000000, -223.000000)">
            <g id="Set1" transform="translate(306.000000, 131.000000)">
                <g id="All" transform="translate(64.000000, 88.000000)">
                    <g id="Group" transform="translate(0.000000, 4.000000)">
                        <path d="M9,1.5 C4.86,1.5 1.5,4.86 1.5,9 C1.5,13.14 4.86,16.5 9,16.5 C13.14,16.5 16.5,13.14 16.5,9 C16.5,4.86 13.14,1.5 9,1.5 Z M9,15 C5.685,15 3,12.315 3,9 C3,5.685 5.685,3 9,3 C12.315,3 15,5.685 15,9 C15,12.315 12.315,15 9,15 Z" id="Shape" fill="#E0E0E0" fill-rule="nonzero"></path>
                        <polygon id="Shape" points="0 0 18 0 18 18 0 18"></polygon>
                    </g>
                </g>
            </g>
        </g>
    </g>
</svg>