<?xml version="1.0" encoding="UTF-8"?>
<svg width="62px" height="62px" viewBox="0 0 62 62" version="1.1" xmlns="http://www.w3.org/2000/svg" xmlns:xlink="http://www.w3.org/1999/xlink">
    <title>icon</title>
    <g id="Page-1" stroke="none" stroke-width="1" fill="none" fill-rule="evenodd">
        <g id="Level-Alert" transform="translate(-689.000000, -424.000000)" fill-rule="nonzero">
            <g transform="translate(535.000000, 377.000000)" id="Group">
                <g transform="translate(154.000000, 47.000000)" id="Path">
                    <path d="M30.8978188,0 C13.8344251,0 0,13.8344251 0,30.8978188 C0,47.9631568 13.8344251,61.7956376 30.8978188,61.7956376 C47.9631568,61.7956376 61.7956376,47.965101 61.7956376,30.8978188 C61.7956376,13.8344251 47.9629408,0 30.8978188,0 Z" fill="#F8DC41"></path>
                    <path d="M30.8997631,13.5505645 C28.6867735,13.5505645 27.0123415,14.7054495 27.0123415,16.5708502 L27.0123415,33.6804739 C27.0123415,35.5478188 28.6865575,36.6988153 30.8997631,36.6988153 C33.0587456,36.6988153 34.7871847,35.4996446 34.7871847,33.6804739 L34.7871847,16.5708502 C34.7869686,14.7497352 33.0587456,13.5505645 30.8997631,13.5505645 Z" fill="#FFFFFF"></path>
                    <path d="M30.8997631,40.5534007 C28.7736167,40.5534007 27.0432334,42.283784 27.0432334,44.4116585 C27.0432334,46.5358606 28.7736167,48.2662439 30.8997631,48.2662439 C33.0259094,48.2662439 34.7543484,46.5358606 34.7543484,44.4116585 C34.7541324,42.2835679 33.0259094,40.5534007 30.8997631,40.5534007 Z" fill="#FFFFFF"></path>
                </g>
            </g>
        </g>
    </g>
</svg>