<?xml version="1.0" encoding="UTF-8"?>
<svg width="16px" height="16px" viewBox="0 0 16 16" version="1.1" xmlns="http://www.w3.org/2000/svg" xmlns:xlink="http://www.w3.org/1999/xlink">
    <title>book</title>
    <g id="Master-MBK" stroke="none" stroke-width="1" fill="none" fill-rule="evenodd">
        <g id="1.0-Employee-Data-(Light)" transform="translate(-22.000000, -129.000000)" fill="#9B9B9B" fill-rule="nonzero">
            <g id="Side-Menu" transform="translate(0.000000, 64.000000)">
                <g id="Power-of-Attorney" transform="translate(0.000000, 52.000000)">
                    <g id="book" transform="translate(22.000000, 13.000000)">
                        <path d="M8,0 L4.53333333,0 C4.3860677,0 4.26666667,0.119401033 4.26666667,0.266666667 L4.26666667,2.13333333 L0.266666667,2.13333333 C0.119401033,2.13333333 0,2.25273437 0,2.4 L0,15.7333333 C0,15.880599 0.119401033,16 0.266666667,16 L8,16 C8.14726563,16 8.26666667,15.880599 8.26666667,15.7333333 L8.26666667,0.266666667 C8.26666667,0.119401033 8.14726563,0 8,0 Z M7.73333333,13.8666667 L4.8,13.8666667 L4.8,13.3333333 L7.73333333,13.3333333 L7.73333333,13.8666667 Z M0.533333333,4 L4.26666667,4 L4.26666667,12 L0.533333333,12 L0.533333333,4 Z M7.73333333,2.93333333 L4.8,2.93333333 L4.8,2.13333333 L7.73333333,2.13333333 L7.73333333,2.93333333 Z M0.533333333,12.5333333 L4.26666667,12.5333333 L4.26666667,13.3333333 L0.533333333,13.3333333 L0.533333333,12.5333333 Z M4.8,12.8 L4.8,3.46666667 L7.73333333,3.46666667 L7.73333333,12.8 L4.8,12.8 Z M7.73333333,0.533333333 L7.73333333,1.6 L4.8,1.6 L4.8,0.533333333 L7.73333333,0.533333333 Z M4.26666667,2.66666667 L4.26666667,3.46666667 L0.533333333,3.46666667 L0.533333333,2.66666667 L4.26666667,2.66666667 Z M0.533333333,13.8666667 L4.26666667,13.8666667 L4.26666667,15.4666667 L0.533333333,15.4666667 L0.533333333,13.8666667 Z M4.8,15.4666667 L4.8,14.4 L7.73333333,14.4 L7.73333333,15.4666667 L4.8,15.4666667 Z" id="Shape"></path>
                        <path d="M15.9914063,14.5994792 L12.7914063,2.3328125 C12.7735677,2.2640625 12.7290365,2.20533853 12.6675781,2.16953127 C12.60625,2.13385417 12.5332031,2.12408853 12.4645833,2.14244793 L8.46458333,3.2091146 C8.32291667,3.246875 8.23828127,3.39192707 8.2752604,3.53385417 L11.4752604,15.8005208 C11.493099,15.8692708 11.5377604,15.9279948 11.5992187,15.9636719 C11.6605469,15.9992187 11.7335937,16.0088542 11.8020833,15.9903646 L15.8020833,14.9236979 C15.9434896,14.8859375 16.0279948,14.7411458 15.9914063,14.5994792 L15.9914063,14.5994792 Z M9.28320313,5.28476563 L12.7679687,4.35572917 L12.8933594,4.83567707 L9.40885417,5.76614583 L9.28320313,5.28476563 Z M13.0279948,5.353125 L14.5746094,11.2858073 L11.0911458,12.2152344 L9.54453127,6.28216147 L13.0279948,5.353125 Z M14.7104167,11.8020833 L14.9834635,12.8485677 L11.4986979,13.7776042 L11.2266927,12.7315104 L14.7104167,11.8020833 Z M12.3429687,2.7266927 L12.6333333,3.83997397 L9.1485677,4.76875 L8.85846353,3.6559896 L12.3429687,2.7266927 Z M11.9236979,15.4066406 L11.6333333,14.2933594 L15.118099,13.3640625 L15.4082031,14.4768229 L11.9236979,15.4066406 Z" id="Shape"></path>
                        <path d="M3.46666667,4.8 L1.33333333,4.8 C1.1860677,4.8 1.06666667,4.91940103 1.06666667,5.06666667 L1.06666667,7.2 C1.06666667,7.34726563 1.1860677,7.46666667 1.33333333,7.46666667 L3.46666667,7.46666667 C3.6139323,7.46666667 3.73333333,7.34726563 3.73333333,7.2 L3.73333333,5.06666667 C3.73333333,4.91940103 3.6139323,4.8 3.46666667,4.8 Z M3.2,6.93333333 L1.6,6.93333333 L1.6,5.33333333 L3.2,5.33333333 L3.2,6.93333333 Z" id="Shape"></path>
                    </g>
                </g>
            </g>
        </g>
    </g>
</svg>