<svg width="24" height="24" viewBox="0 0 24 24" fill="none" xmlns="http://www.w3.org/2000/svg">
<path fill-rule="evenodd" clip-rule="evenodd" d="M12 19.4388C12.1729 19.4388 12.3483 19.435 12.5215 19.4275C13.038 19.4035 13.4766 19.8058 13.4991 20.3231C13.5218 20.8403 13.1208 21.278 12.6035 21.3007C12.403 21.3093 12.2 21.3138 12 21.3138C10.3835 21.3138 8.81964 21.035 7.34564 20.4844L1.30206 23.0356C1.18451 23.0852 1.06055 23.1094 0.937683 23.1094C0.693787 23.1094 0.454102 23.0142 0.274658 22.8347C0.00494386 22.565 -0.0745239 22.1587 0.0737915 21.8073L2.1861 16.8038C0.753662 15.0084 0 12.9033 0 10.6804C0 4.79114 5.3833 0 12 0C18.6169 0 24 4.79114 24 10.6804C24 12.1225 23.6519 13.5579 22.9655 14.9467C22.736 15.4109 22.1737 15.6011 21.7095 15.3717C21.2454 15.1423 21.0551 14.58 21.2845 14.1158C21.8423 12.9877 22.125 11.8317 22.125 10.6804C22.125 5.82513 17.5829 1.875 12 1.875C6.41711 1.875 1.875 5.82513 1.875 10.6804C1.875 12.6286 2.60065 14.4738 3.97339 16.0159C4.21399 16.2861 4.27753 16.6707 4.1369 17.0037L2.69861 20.4108L6.96735 18.6088C7.19696 18.512 7.45587 18.5105 7.68658 18.6046C9.0412 19.1581 10.4925 19.4388 12 19.4388ZM7.73438 11.3438C7.21655 11.3438 6.79688 10.9241 6.79688 10.4062C6.79688 9.88843 7.21655 9.46875 7.73438 9.46875C8.2522 9.46875 8.67188 9.88843 8.67188 10.4062C8.67188 10.9241 8.2522 11.3438 7.73438 11.3438ZM11.9531 9.46875C12.4709 9.46875 12.8906 9.88843 12.8906 10.4062C12.8906 10.9241 12.4709 11.3438 11.9531 11.3438C11.4353 11.3438 11.0156 10.9241 11.0156 10.4062C11.0156 9.88843 11.4353 9.46875 11.9531 9.46875ZM15.2344 10.4062C15.2344 10.9241 15.6541 11.3438 16.1719 11.3438C16.6897 11.3438 17.1094 10.9241 17.1094 10.4062C17.1094 9.88843 16.6897 9.46875 16.1719 9.46875C15.6541 9.46875 15.2344 9.88843 15.2344 10.4062ZM23.1756 19.1982C24.2728 20.2954 24.2728 22.0796 23.1762 23.1762C22.6279 23.7244 21.9076 23.9987 21.1875 23.9987C20.4673 23.9987 19.747 23.7244 19.1987 23.1762L14.0524 18.0414C13.9431 17.9323 13.8625 17.798 13.8176 17.6501L12.6967 13.96C12.5972 13.6328 12.6839 13.2775 12.9226 13.0327C13.1614 12.7881 13.5144 12.6929 13.844 12.7841L17.6279 13.8322C17.7837 13.8754 17.9256 13.9579 18.0401 14.0722L23.1756 19.1982ZM19.0163 20.3454L15.5434 16.8801L14.9864 15.0461L16.8899 15.5735L20.3424 19.0193L19.0163 20.3454ZM21.8504 20.5247L21.6695 20.3439L20.3436 21.6698L20.524 21.8496C20.8902 22.216 21.4849 22.216 21.8504 21.8503C22.2161 21.4849 22.2161 20.8901 21.8504 20.5247Z" fill="#FF9600"/>
</svg>
