<?xml version="1.0" encoding="UTF-8"?>
<svg width="19px" height="19px" viewBox="0 0 19 19" version="1.1" xmlns="http://www.w3.org/2000/svg" xmlns:xlink="http://www.w3.org/1999/xlink">
    <title>DarkMode</title>
    <g id="Master-MBK" stroke="none" stroke-width="1" fill="none" fill-rule="evenodd" opacity="0.200544085">
        <g id="1.0-Employee-Data-(Light)" transform="translate(-1250.000000, -23.000000)" fill="#000000" fill-rule="nonzero">
            <g id="Head" transform="translate(210.000000, 0.000000)">
                <g id="Path" transform="translate(1040.000000, 23.000000)">
                    <path d="M18.5265176,10.7751588 C18.3322684,10.7265965 18.1380192,10.7751588 17.9680511,10.8965645 C17.3367412,11.4307498 16.6083067,11.8678105 15.8070288,12.1591843 C15.0543131,12.4505581 14.228754,12.596245 13.3546326,12.596245 C11.3878594,12.596245 9.59105431,11.7949671 8.30415335,10.5080661 C7.0172524,9.22116515 6.21597444,7.42436004 6.21597444,5.45758688 C6.21597444,4.63202777 6.36166134,3.83074981 6.60447284,3.10231531 C6.8715655,2.3253185 7.2600639,1.62116515 7.76996805,1.0141364 C7.9884984,0.747043744 7.9399361,0.358545342 7.67284345,0.14001499 C7.5028754,0.0186092393 7.3086262,-0.029953061 7.114377,0.0186092393 C5.05047923,0.577075693 3.25367412,1.81541435 1.96677316,3.46653256 C0.728434505,5.09336962 -1.03516769e-14,7.10870509 -1.03516769e-14,9.2940086 C-1.03516769e-14,11.940654 1.06837061,14.3444878 2.81661342,16.0927306 C4.56485623,17.8409735 6.94440895,18.9093441 9.61533546,18.9093441 C11.8492013,18.9093441 13.913099,18.1323473 15.5642173,16.8454463 C17.2396166,15.5342642 18.4536741,13.6646156 18.9635783,11.5278744 C19.0607029,11.1879383 18.8664537,10.8480022 18.5265176,10.7751588 Z"></path>
                </g>
            </g>
        </g>
    </g>
</svg>