<?xml version="1.0" encoding="UTF-8"?>
<svg width="16px" height="16px" viewBox="0 0 16 16" version="1.1" xmlns="http://www.w3.org/2000/svg" xmlns:xlink="http://www.w3.org/1999/xlink">
    <title>dashboard</title>
    <g id="Master-MBK" stroke="none" stroke-width="1" fill="none" fill-rule="evenodd">
        <g id="1.0-Employee-Data-(Light)" transform="translate(-22.000000, -87.000000)" fill="#9B9B9B" fill-rule="nonzero">
            <g id="Side-Menu" transform="translate(0.000000, 64.000000)">
                <g id="Dashboard" transform="translate(0.000000, 10.000000)">
                    <g id="dashboard" transform="translate(22.000000, 13.000000)">
                        <path d="M6.16662597,5.33337403 L1.16662597,5.33337403 C0.523315437,5.33337403 0,4.81005859 0,4.16662597 L0,1.16662597 C0,0.523315437 0.523315437,0 1.16662597,0 L6.16662597,0 C6.81005859,0 7.33337403,0.523315437 7.33337403,1.16662597 L7.33337403,4.16662597 C7.33337403,4.81005859 6.81005859,5.33337403 6.16662597,5.33337403 Z M1.16662597,1 C1.07470703,1 1,1.07470703 1,1.16662597 L1,4.16662597 C1,4.258667 1.07470703,4.33337403 1.16662597,4.33337403 L6.16662597,4.33337403 C6.258667,4.33337403 6.33337403,4.258667 6.33337403,4.16662597 L6.33337403,1.16662597 C6.33337403,1.07470703 6.258667,1 6.16662597,1 L1.16662597,1 Z" id="Shape"></path>
                        <path d="M6.16662597,16 L1.16662597,16 C0.523315437,16 0,15.4766846 0,14.833374 L0,7.83337403 C0,7.18994141 0.523315437,6.66662597 1.16662597,6.66662597 L6.16662597,6.66662597 C6.81005859,6.66662597 7.33337403,7.18994141 7.33337403,7.83337403 L7.33337403,14.833374 C7.33337403,15.4766846 6.81005859,16 6.16662597,16 Z M1.16662597,7.66662597 C1.07470703,7.66662597 1,7.741333 1,7.83337403 L1,14.833374 C1,14.925293 1.07470703,15 1.16662597,15 L6.16662597,15 C6.258667,15 6.33337403,14.925293 6.33337403,14.833374 L6.33337403,7.83337403 C6.33337403,7.741333 6.258667,7.66662597 6.16662597,7.66662597 L1.16662597,7.66662597 Z" id="Shape"></path>
                        <path d="M9.83337403,16 C9.18994141,16 8.66662597,15.4766846 8.66662597,14.833374 L8.66662597,11.833374 C8.66662597,11.1899414 9.18994141,10.666626 9.83337403,10.666626 L14.833374,10.666626 C15.4766846,10.666626 16,11.1899414 16,11.833374 L16,14.833374 C16,15.4766846 15.4766846,16 14.833374,16 L9.83337403,16 Z M9.83337403,11.666626 C9.741333,11.666626 9.66662597,11.741333 9.66662597,11.833374 L9.66662597,14.833374 C9.66662597,14.925293 9.741333,15 9.83337403,15 L14.833374,15 C14.925293,15 15,14.925293 15,14.833374 L15,11.833374 C15,11.741333 14.925293,11.666626 14.833374,11.666626 L9.83337403,11.666626 Z" id="Shape"></path>
                        <path d="M9.83337403,9.33337403 C9.18994141,9.33337403 8.66662597,8.81005859 8.66662597,8.16662597 L8.66662597,1.16662597 C8.66662597,0.523315438 9.18994141,8.8817842e-16 9.83337403,8.8817842e-16 L14.833374,8.8817842e-16 C15.4766846,8.8817842e-16 16,0.523315438 16,1.16662597 L16,8.16662597 C16,8.81005859 15.4766846,9.33337403 14.833374,9.33337403 L9.83337403,9.33337403 Z M9.83337403,1 C9.741333,1 9.66662597,1.07470703 9.66662597,1.16662597 L9.66662597,8.16662597 C9.66662597,8.258667 9.741333,8.33337403 9.83337403,8.33337403 L14.833374,8.33337403 C14.925293,8.33337403 15,8.258667 15,8.16662597 L15,1.16662597 C15,1.07470703 14.925293,1 14.833374,1 L9.83337403,1 Z" id="Shape"></path>
                    </g>
                </g>
            </g>
        </g>
    </g>
</svg>