<svg width="22" height="22" viewBox="0 0 22 22" fill="none" xmlns="http://www.w3.org/2000/svg">
<path d="M10.1953 17.115C10.4087 17.3284 10.6981 17.4483 10.9999 17.4483C11.3017 17.4483 11.5912 17.3284 11.8046 17.115L16.096 12.8236C16.5404 12.3792 16.5404 11.6587 16.096 11.2143C15.6516 10.7699 14.9311 10.7699 14.4867 11.2143L12.1379 13.5631V1.13793C12.1379 0.509469 11.6284 0 10.9999 0C10.3715 0 9.86201 0.509469 9.86201 1.13793V13.5631L7.51318 11.2143C7.06879 10.7699 6.3483 10.7699 5.90391 11.2143C5.45952 11.6587 5.45952 12.3792 5.90391 12.8236L10.1953 17.115Z" fill="#26C8F0"/>
<path d="M20.8621 9.86207C20.2336 9.86207 19.7241 10.3715 19.7241 11V19.7241H2.27586V11C2.27586 10.3715 1.76639 9.86207 1.13793 9.86207C0.509469 9.86207 0 10.3715 0 11V20.1034C0 21.1509 0.849115 22 1.89655 22H20.1034C21.1509 22 22 21.1509 22 20.1034V11C22 10.3715 21.4905 9.86207 20.8621 9.86207V9.86207Z" fill="#26C8F0"/>
</svg>
