<?xml version="1.0" encoding="UTF-8"?>
<svg width="20px" height="20px" viewBox="0 0 20 20" version="1.1" xmlns="http://www.w3.org/2000/svg" xmlns:xlink="http://www.w3.org/1999/xlink">
    <title>exit</title>
    <g id="Dashboard" stroke="none" stroke-width="1" fill="none" fill-rule="evenodd">
        <g id="1.0-Dashboard-(Light)" transform="translate(-1341.000000, -78.000000)" fill="#4A4A4A" fill-rule="nonzero">
            <g id="Head" transform="translate(210.000000, 0.000000)">
                <g id="Profile-Explan" transform="translate(1119.000000, 0.000000)">
                    <g id="Log-out" transform="translate(0.000000, 68.000000)">
                        <g id="exit" transform="translate(12.000000, 10.000000)">
                            <path d="M19.6473047,9.45464844 L14.9185938,5.96625 C14.5352344,5.6834375 13.9920313,5.95820312 13.9920313,6.43410156 L13.9920313,8.17828125 L12.8292188,8.17828125 L12.8292188,1.74417969 C12.8292578,0.782460937 12.0467969,0 11.0850391,0 L1.78269531,0 C0.822773437,0 0.038515625,0.782304688 0.038515625,1.74417969 C0.038515625,2.27941406 0.038515625,14.415 0.038515625,15.1529297 C0.038515625,15.7374219 0.328867187,16.2799609 0.815234375,16.6041797 L5.46640625,19.7049609 C6.62429688,20.4769141 8.178125,19.6435547 8.178125,18.2537109 L8.178125,17.5194531 L11.0851172,17.5194531 C12.046875,17.5194531 12.8292969,16.7369922 12.8292969,15.7752734 L12.8292969,11.6667187 L13.9921094,11.6667187 L13.9921094,13.4108984 C13.9921094,13.8901953 14.5382422,14.159375 14.9186719,13.87875 L19.6473828,10.3903516 C19.9620703,10.1581641 19.9620313,9.68683594 19.6473047,9.45464844 Z M6.11140625,18.7374219 L1.46023437,15.6366406 C1.29808594,15.5285547 1.20132812,15.3476953 1.20132812,15.1528906 C1.20132812,14.9880469 1.20132812,3.92085937 1.20132812,1.74414062 C1.20132812,1.6725 1.21496094,1.60417969 1.23875,1.54078125 L6.59699219,4.21992187 C6.7878125,4.3153125 7.0153125,4.49140625 7.0153125,4.78839844 L7.0153125,18.2536719 L7.0153125,18.2536719 C7.0153125,18.7185156 6.49839844,18.9955078 6.11140625,18.7374219 Z M11.6664844,15.7752734 C11.6664844,16.0958594 11.4056641,16.3566797 11.0850781,16.3566797 L8.178125,16.3566797 L8.178125,4.7884375 C8.178125,4.10339844 7.79136719,3.51710938 7.11707031,3.17992188 L3.08277344,1.1628125 L11.0850781,1.1628125 C11.4056641,1.1628125 11.6664844,1.42363281 11.6664844,1.74421875 L11.6664844,8.17835938 L9.92230469,8.17835938 C9.60121094,8.17835938 9.34089844,8.43867188 9.34089844,8.75976563 L9.34089844,11.0853516 C9.34089844,11.4064453 9.60121094,11.6667578 9.92230469,11.6667578 L11.6664844,11.6667578 L11.6664844,15.7752734 L11.6664844,15.7752734 Z M15.1548828,12.2594922 L15.1548828,11.0853125 C15.1548828,10.7642188 14.8945703,10.5039062 14.5734766,10.5039062 L10.5037109,10.5039062 L10.5037109,9.34109375 L14.5734766,9.34109375 C14.8945703,9.34109375 15.1548828,9.08078125 15.1548828,8.7596875 L15.1548828,7.58554688 L18.3228125,9.92253906 L15.1548828,12.2594922 Z" id="Shape"></path>
                            <path d="M5.27113281,8.17832031 C4.95003906,8.17832031 4.68972656,8.43863281 4.68972656,8.75972656 L4.68972656,11.0853125 C4.68972656,11.4064063 4.95003906,11.6667188 5.27113281,11.6667188 C5.59222656,11.6667188 5.85253906,11.4064063 5.85253906,11.0853125 L5.85253906,8.75972656 C5.8525,8.43863281 5.5921875,8.17832031 5.27113281,8.17832031 Z" id="Path"></path>
                        </g>
                    </g>
                </g>
            </g>
        </g>
    </g>
</svg>