<?xml version="1.0" encoding="UTF-8"?>
<svg width="48px" height="59px" viewBox="0 0 48 59" version="1.1" xmlns="http://www.w3.org/2000/svg" xmlns:xlink="http://www.w3.org/1999/xlink">
    <title>file</title>
    <defs>
        <filter x="-40.0%" y="-31.6%" width="180.0%" height="163.9%" filterUnits="objectBoundingBox" id="filter-1">
            <feOffset dx="4" dy="4" in="SourceAlpha" result="shadowOffsetOuter1"></feOffset>
            <feGaussianBlur stdDeviation="2" in="shadowOffsetOuter1" result="shadowBlurOuter1"></feGaussianBlur>
            <feColorMatrix values="0 0 0 0 0   0 0 0 0 0.50537817   0 0 0 0 0.495604139  0 0 0 0.5 0" type="matrix" in="shadowBlurOuter1" result="shadowMatrixOuter1"></feColorMatrix>
            <feMerge>
                <feMergeNode in="shadowMatrixOuter1"></feMergeNode>
                <feMergeNode in="SourceGraphic"></feMergeNode>
            </feMerge>
        </filter>
    </defs>
    <g id="Template-Home" stroke="none" stroke-width="1" fill="none" fill-rule="evenodd" opacity="0.70359003">
        <g id="1.0-Template-Home-(Light)" transform="translate(-719.000000, -221.000000)" fill="#FFFFFF" fill-rule="nonzero">
            <g id="Main" transform="translate(571.000000, 195.000000)">
                <g id="file" transform="translate(148.000000, 26.000000)" filter="url(#filter-1)">
                    <g id="Shape">
                        <path d="M2.7124774,50.6329114 L37.0705244,50.6329114 C38.5678614,50.6311675 39.781258,49.417771 39.7830018,47.920434 L39.7830018,10.8499096 L33.4538879,10.8499096 C30.9582833,10.8471068 28.9358951,8.82471853 28.9330922,6.32911392 L28.9330922,6.42443703e-15 L2.7124774,6.42443703e-15 C1.21514041,0.0017438432 0.0017438432,1.21514041 0,2.7124774 L0,47.920434 C0.0017438432,49.417771 1.21514041,50.6311675 2.7124774,50.6329114 L2.7124774,50.6329114 Z M28.0289331,43.3996383 L18.9873418,43.3996383 C18.4879885,43.3996383 18.0831826,42.9948325 18.0831826,42.4954792 C18.0831826,41.9961259 18.4879885,41.5913201 18.9873418,41.5913201 L28.0289331,41.5913201 C28.5282864,41.5913201 28.9330922,41.9961259 28.9330922,42.4954792 C28.9330922,42.9948325 28.5282864,43.3996383 28.0289331,43.3996383 Z M15.3707052,37.9746835 C14.8713519,37.9746835 14.4665461,37.5698777 14.4665461,37.0705244 C14.4665461,36.5711711 14.8713519,36.1663653 15.3707052,36.1663653 L24.4122966,36.1663653 C24.9116499,36.1663653 25.3164557,36.5711711 25.3164557,37.0705244 C25.3164557,37.5698777 24.9116499,37.9746835 24.4122966,37.9746835 L15.3707052,37.9746835 Z M35.2622061,43.3996383 L31.6455696,43.3996383 C31.1462163,43.3996383 30.7414105,42.9948325 30.7414105,42.4954792 C30.7414105,41.9961259 31.1462163,41.5913201 31.6455696,41.5913201 L35.2622061,41.5913201 C35.7615594,41.5913201 36.1663653,41.9961259 36.1663653,42.4954792 C36.1663653,42.9948325 35.7615594,43.3996383 35.2622061,43.3996383 Z M35.2622061,37.9746835 L28.0289331,37.9746835 C27.5295798,37.9746835 27.124774,37.5698777 27.124774,37.0705244 C27.124774,36.5711711 27.5295798,36.1663653 28.0289331,36.1663653 L35.2622061,36.1663653 C35.7615594,36.1663653 36.1663653,36.5711711 36.1663653,37.0705244 C36.1663653,37.5698777 35.7615594,37.9746835 35.2622061,37.9746835 Z M35.2622061,32.5497288 L29.8372514,32.5497288 C29.3378981,32.5497288 28.9330922,32.1449229 28.9330922,31.6455696 C28.9330922,31.1462163 29.3378981,30.7414105 29.8372514,30.7414105 L35.2622061,30.7414105 C35.7615594,30.7414105 36.1663653,31.1462163 36.1663653,31.6455696 C36.1663653,32.1449229 35.7615594,32.5497288 35.2622061,32.5497288 Z M35.2622061,27.124774 L18.9873418,27.124774 C18.4879885,27.124774 18.0831826,26.7199681 18.0831826,26.2206148 C18.0831826,25.7212615 18.4879885,25.3164557 18.9873418,25.3164557 L35.2622061,25.3164557 C35.7615594,25.3164557 36.1663653,25.7212615 36.1663653,26.2206148 C36.1663653,26.7199681 35.7615594,27.124774 35.2622061,27.124774 Z M35.2622061,21.6998192 L26.2206148,21.6998192 C25.7212615,21.6998192 25.3164557,21.2950133 25.3164557,20.79566 C25.3164557,20.2963067 25.7212615,19.8915009 26.2206148,19.8915009 L35.2622061,19.8915009 C35.7615594,19.8915009 36.1663653,20.2963067 36.1663653,20.79566 C36.1663653,21.2950133 35.7615594,21.6998192 35.2622061,21.6998192 Z M35.2622061,14.4665461 C35.7615594,14.4665461 36.1663653,14.8713519 36.1663653,15.3707052 C36.1663653,15.8700585 35.7615594,16.2748644 35.2622061,16.2748644 L13.562387,16.2748644 C13.0630337,16.2748644 12.6582278,15.8700585 12.6582278,15.3707052 C12.6582278,14.8713519 13.0630337,14.4665461 13.562387,14.4665461 L35.2622061,14.4665461 Z M4.52079566,9.04159132 L15.3707052,9.04159132 C15.8700585,9.04159132 16.2748644,9.44639715 16.2748644,9.94575045 C16.2748644,10.4451038 15.8700585,10.8499096 15.3707052,10.8499096 L4.52079566,10.8499096 C4.02144236,10.8499096 3.61663653,10.4451038 3.61663653,9.94575045 C3.61663653,9.44639715 4.02144236,9.04159132 4.52079566,9.04159132 Z M4.52079566,14.4665461 L9.94575045,14.4665461 C10.4451038,14.4665461 10.8499096,14.8713519 10.8499096,15.3707052 C10.8499096,15.8700585 10.4451038,16.2748644 9.94575045,16.2748644 L4.52079566,16.2748644 C4.02144236,16.2748644 3.61663653,15.8700585 3.61663653,15.3707052 C3.61663653,14.8713519 4.02144236,14.4665461 4.52079566,14.4665461 Z M4.52079566,19.8915009 L22.6039783,19.8915009 C23.1033316,19.8915009 23.5081374,20.2963067 23.5081374,20.79566 C23.5081374,21.2950133 23.1033316,21.6998192 22.6039783,21.6998192 L4.52079566,21.6998192 C4.02144236,21.6998192 3.61663653,21.2950133 3.61663653,20.79566 C3.61663653,20.2963067 4.02144236,19.8915009 4.52079566,19.8915009 Z M4.52079566,25.3164557 L15.3707052,25.3164557 C15.8700585,25.3164557 16.2748644,25.7212615 16.2748644,26.2206148 C16.2748644,26.7199681 15.8700585,27.124774 15.3707052,27.124774 L4.52079566,27.124774 C4.02144236,27.124774 3.61663653,26.7199681 3.61663653,26.2206148 C3.61663653,25.7212615 4.02144236,25.3164557 4.52079566,25.3164557 Z M4.52079566,30.7414105 L26.2206148,30.7414105 C26.7199681,30.7414105 27.124774,31.1462163 27.124774,31.6455696 C27.124774,32.1449229 26.7199681,32.5497288 26.2206148,32.5497288 L4.52079566,32.5497288 C4.02144236,32.5497288 3.61663653,32.1449229 3.61663653,31.6455696 C3.61663653,31.1462163 4.02144236,30.7414105 4.52079566,30.7414105 Z M4.52079566,36.1663653 L11.7540687,36.1663653 C12.253422,36.1663653 12.6582278,36.5711711 12.6582278,37.0705244 C12.6582278,37.5698777 12.253422,37.9746835 11.7540687,37.9746835 L4.52079566,37.9746835 C4.02144236,37.9746835 3.61663653,37.5698777 3.61663653,37.0705244 C3.61663653,36.5711711 4.02144236,36.1663653 4.52079566,36.1663653 Z M4.52079566,41.5913201 L15.3707052,41.5913201 C15.8700585,41.5913201 16.2748644,41.9961259 16.2748644,42.4954792 C16.2748644,42.9948325 15.8700585,43.3996383 15.3707052,43.3996383 L4.52079566,43.3996383 C4.02144236,43.3996383 3.61663653,42.9948325 3.61663653,42.4954792 C3.61663653,41.9961259 4.02144236,41.5913201 4.52079566,41.5913201 Z M30.7414105,6.32911392 L30.7414105,1.27859403 L38.5044078,9.04159132 L33.4538879,9.04159132 C31.9565251,9.03990962 30.7430922,7.82647669 30.7414105,6.32911392 Z"></path>
                    </g>
                </g>
            </g>
        </g>
    </g>
</svg>