<?xml version="1.0" encoding="UTF-8"?>
<svg width="16px" height="16px" viewBox="0 0 16 16" version="1.1" xmlns="http://www.w3.org/2000/svg" xmlns:xlink="http://www.w3.org/1999/xlink">
    <title>files</title>
    <g id="Master-MBK" stroke="none" stroke-width="1" fill="none" fill-rule="evenodd">
        <g id="1.0-Employee-Data-(Light)" transform="translate(-22.000000, -339.000000)" fill="#9B9B9B" fill-rule="nonzero">
            <g id="Side-Menu" transform="translate(0.000000, 64.000000)">
                <g id="Template" transform="translate(0.000000, 262.000000)">
                    <g id="files" transform="translate(22.000000, 13.000000)">
                        <path d="M15.7333437,15.4666562 L14.6666875,15.4666562 L14.6666875,8 C14.6662188,7.558375 14.3083125,7.20046875 13.8666875,7.2 L13.8666875,5.6 C13.8662187,5.158375 13.5083125,4.80046875 13.0666875,4.8 L13.0666875,3.2 C13.0662187,2.758375 12.7083125,2.40046875 12.2666875,2.4 L12.2666875,0.8 C12.2662187,0.358375 11.9083125,0.00046875 11.4666875,0 L4.53334375,0 C4.09171875,0.00046875 3.7338125,0.358375 3.73334375,0.8 L3.73334375,2.4 C3.29171875,2.40046875 2.9338125,2.758375 2.93334375,3.2 L2.93334375,4.8 C2.49171875,4.80046875 2.1338125,5.158375 2.13334375,5.6 L2.13334375,7.2 C1.69171875,7.20046875 1.3338125,7.558375 1.33334375,8 L1.33334375,15.4666563 L0.26665625,15.4666563 C0.119375,15.4666563 0,15.5860313 0,15.7333125 C0,15.8805938 0.119375,16 0.26665625,16 L15.7333125,16 C15.8805938,16 15.9999688,15.880625 15.9999688,15.7333437 C15.9999688,15.5860625 15.880625,15.4666562 15.7333437,15.4666562 Z M4.26665625,0.8 C4.26675,0.65278125 4.38609375,0.5334375 4.5333125,0.53334375 L11.4666562,0.53334375 C11.6139062,0.5334375 11.7332187,0.65278125 11.7333125,0.8 L11.7333125,2.4 L7.706375,2.4 C7.57965625,1.77921875 7.03359375,1.33334375 6.4,1.33334375 C5.76640625,1.33334375 5.22034375,1.77921875 5.093625,2.4 L4.26665625,2.4 L4.26665625,0.8 L4.26665625,0.8 Z M7.150875,2.4 L5.64915625,2.4 C5.7605625,2.080625 6.06178125,1.86665625 6.40003125,1.86665625 C6.73828125,1.86665625 7.03946875,2.080625 7.150875,2.4 Z M3.46665625,3.2 C3.46675,3.05275 3.58609375,2.9334375 3.7333125,2.93334375 L12.2666563,2.93334375 C12.4139063,2.9334375 12.5332188,3.05278125 12.5333125,3.2 L12.5333125,4.8 L6.906375,4.8 C6.77965625,4.17921875 6.23359375,3.73334375 5.6,3.73334375 C4.96640625,3.73334375 4.42034375,4.17921875 4.293625,4.8 L3.46665625,4.8 L3.46665625,3.2 L3.46665625,3.2 Z M6.350875,4.8 L4.84915625,4.8 C4.9605625,4.480625 5.26178125,4.26665625 5.60003125,4.26665625 C5.93828125,4.26665625 6.23946875,4.480625 6.350875,4.8 Z M2.66665625,5.6 C2.66665625,5.45275 2.78609375,5.3334375 2.9333125,5.33334375 L13.0666563,5.33334375 C13.213875,5.3334375 13.3333125,5.45278125 13.3333125,5.6 L13.3333125,7.2 L6.106375,7.2 C5.97965625,6.57921875 5.43359375,6.13334375 4.8,6.13334375 C4.16640625,6.13334375 3.62034375,6.57921875 3.493625,7.2 L2.66665625,7.2 L2.66665625,5.6 Z M5.550875,7.2 L4.04915625,7.2 C4.1605625,6.880625 4.46178125,6.66665625 4.80003125,6.66665625 C5.13828125,6.66665625 5.43946875,6.880625 5.550875,7.2 Z M14.1333437,15.4666562 L1.86665625,15.4666562 L1.86665625,8 C1.86665625,7.85278125 1.98609375,7.7334375 2.1333125,7.73334375 L13.8666563,7.73334375 C14.0139062,7.7334375 14.1332187,7.85278125 14.1333437,8 L14.1333437,15.4666562 L14.1333437,15.4666562 Z" id="Shape"></path>
                        <path d="M4.53334375,12 C5.417,12 6.13334375,11.2836562 6.13334375,10.4 C6.13334375,9.51634375 5.417,8.8 4.53334375,8.8 C3.6496875,8.8 2.93334375,9.51634375 2.93334375,10.4 C2.9343125,11.28325 3.6500625,11.9990312 4.53334375,12 Z M4.53334375,9.33334375 C5.1224375,9.33334375 5.6,9.81090625 5.6,10.4 C5.6,10.9890937 5.1224375,11.4666562 4.53334375,11.4666562 C3.94425,11.4666562 3.4666875,10.9890937 3.4666875,10.4 C3.46725,9.811125 3.94446875,9.33390625 4.53334375,9.33334375 Z" id="Shape"></path>
                        <path d="M12.8,8.8 L7.2,8.8 C7.05271875,8.8 6.93334375,8.919375 6.93334375,9.06665625 C6.93334375,9.2139375 7.05271875,9.3333125 7.2,9.3333125 L12.8,9.3333125 C12.9472813,9.3333125 13.0666563,9.2139375 13.0666563,9.06665625 C13.0666563,8.919375 12.9472812,8.8 12.8,8.8 Z" id="Path"></path>
                        <path d="M12.8,10.1333437 L7.2,10.1333437 C7.05271875,10.1333437 6.93334375,10.25275 6.93334375,10.4 C6.93334375,10.5472813 7.05271875,10.6666563 7.2,10.6666563 L12.8,10.6666563 C12.9472813,10.6666563 13.0666563,10.54725 13.0666563,10.4 C13.0666563,10.2527187 12.9472812,10.1333437 12.8,10.1333437 Z" id="Path"></path>
                        <path d="M12.8,11.4666562 L7.2,11.4666562 C7.05271875,11.4666562 6.93334375,11.5860312 6.93334375,11.7333125 C6.93334375,11.8805938 7.05271875,12 7.2,12 L12.8,12 C12.9472813,12 13.0666563,11.880625 13.0666563,11.7333437 C13.0666563,11.5860625 12.9472812,11.4666562 12.8,11.4666562 Z" id="Path"></path>
                        <path d="M12.8,12.8 L3.2,12.8 C3.05271875,12.8 2.93334375,12.919375 2.93334375,13.0666563 C2.93334375,13.2139375 3.05271875,13.3333125 3.2,13.3333125 L12.8,13.3333125 C12.9472813,13.3333125 13.0666563,13.2139375 13.0666563,13.0666563 C13.0666563,12.919375 12.9472812,12.8 12.8,12.8 Z" id="Path"></path>
                        <path d="M12.8,14.1333437 L3.2,14.1333437 C3.05271875,14.1333437 2.93334375,14.25275 2.93334375,14.4 C2.93334375,14.54725 3.05271875,14.6666562 3.2,14.6666562 L12.8,14.6666562 C12.9472813,14.6666562 13.0666563,14.5472812 13.0666563,14.4 C13.0666563,14.2527187 12.9472812,14.1333437 12.8,14.1333437 Z" id="Path"></path>
                    </g>
                </g>
            </g>
        </g>
    </g>
</svg>