<?xml version="1.0" encoding="UTF-8"?>
<svg width="16px" height="15px" viewBox="0 0 16 15" version="1.1" xmlns="http://www.w3.org/2000/svg" xmlns:xlink="http://www.w3.org/1999/xlink">
    <title>folders</title>
    <g id="Master-MBK" stroke="none" stroke-width="1" fill="none" fill-rule="evenodd">
        <g id="1.0-Employee-Data-(Light)" transform="translate(-22.000000, -214.000000)" fill="#606060" fill-rule="nonzero">
            <g id="Side-Menu" transform="translate(0.000000, 64.000000)">
                <g id="Master-Sync-MBK" transform="translate(0.000000, 136.000000)">
                    <g id="Master-MBK&gt;Sub-Menu-Active" transform="translate(12.000000, 2.000000)">
                        <g id="folders" transform="translate(10.000000, 12.000000)">
                            <path d="M14.814286,3.98871591 C14.6286675,3.50662405 14.2476901,3.13674183 13.7825313,2.95757408 C13.5171502,2.26709287 12.8513428,1.8061915 12.1111591,1.8061915 L7.12365155,1.8061915 C6.99886307,1.67495234 6.86968812,1.56064622 6.73564291,1.46320864 L6.1324072,0.816817855 C5.62806048,0.267155076 5.05169186,0 4.37033837,0 L1.79006479,0 C0.803013391,0 0,0.803013391 0,1.79006479 L0,11.0790497 C0,11.8192334 0.460901368,12.4850407 1.15135032,12.7504219 C1.33048582,13.215613 1.70033578,13.5965258 2.18252441,13.7821443 C2.44035824,14.4545313 3.09229662,14.9333333 3.85428366,14.9333333 L14.175378,14.9333333 C15.1624294,14.9333333 15.9654428,14.1303199 15.9654428,13.1432685 L15.9654428,5.66047516 C15.9654428,4.89848812 15.486673,4.24654975 14.814286,3.98871591 Z M14.2060832,3.87118445 C14.1958266,3.87102318 14.1856668,3.87041037 14.175378,3.87041037 L9.11994471,3.87041037 L8.6082442,3.32210223 L13.1432685,3.32210223 C13.5706586,3.32210223 13.9643438,3.5331041 14.2060832,3.87118445 Z M13.1738448,2.83891375 C13.1636527,2.83875248 13.1534929,2.83830094 13.1432685,2.83830094 L8.24074874,2.83830094 C8.214946,2.83830094 8.19014312,2.84242937 8.1668239,2.84991217 C7.95782174,2.62794413 7.73656328,2.45345313 7.50059726,2.32624564 C7.50162937,2.31418287 7.50198416,2.30208783 7.50121008,2.2899928 L12.1111591,2.2899928 C12.5385814,2.2899928 12.9321377,2.50089791 13.1738448,2.83891375 Z M0.483801296,11.0790497 L0.483801296,1.79006479 C0.483801296,1.06978143 1.06978143,0.483801296 1.79006479,0.483801296 L4.37033837,0.483801296 C4.87529791,0.483801296 5.29536645,0.663839885 5.68376213,1.04862318 C5.59193665,1.03801181 5.49833722,1.03210943 5.4024478,1.03210943 L2.82217423,1.03210943 C1.83512282,1.03210943 1.03210943,1.83512282 1.03210943,2.82217423 L1.03210943,12.1111591 C1.03210943,12.1213834 1.03252873,12.1315433 1.03272225,12.1417353 C0.694706407,11.899996 0.483801296,11.506472 0.483801296,11.0790497 Z M1.51591073,12.1111591 L1.51591073,2.82217423 C1.51591073,2.10189086 2.10189086,1.51591073 2.82217423,1.51591073 L5.4024478,1.51591073 C5.77913549,1.51591073 6.10857192,1.61596084 6.41288294,1.82644665 L6.6435594,2.07363686 C6.57489186,2.06779899 6.505418,2.06421886 6.43455724,2.06421886 L3.85428366,2.06421886 C2.86723225,2.06421886 2.06421886,2.86723225 2.06421886,3.85428366 L2.06421886,13.1432685 C2.06421886,13.1535574 2.06483168,13.1637172 2.06499294,13.1739738 C1.7269126,12.9322667 1.51591073,12.5386782 1.51591073,12.1111591 Z M15.4816415,13.1432685 C15.4816415,13.8635519 14.8956613,14.449532 14.175378,14.449532 L3.85428366,14.449532 C3.13400029,14.449532 2.54802016,13.8635519 2.54802016,13.1432685 L2.54802016,7.20863931 C2.54802016,6.48835594 3.13400029,5.90237581 3.85428366,5.90237581 L14.175378,5.90237581 C14.8956613,5.90237581 15.4816415,6.48835594 15.4816415,7.20863931 L15.4816415,13.1432685 Z M14.175378,5.41857451 L3.85428366,5.41857451 C3.33939006,5.41857451 2.87490857,5.63738171 2.54802016,5.98655724 L2.54802016,3.85428366 C2.54802016,3.13400029 3.13400029,2.54802016 3.85428366,2.54802016 L6.43455724,2.54802016 C6.9802851,2.54802016 7.42693045,2.75776415 7.84151591,3.2096023 L8.83798531,4.27735176 C8.88372066,4.32637696 8.94777595,4.35421166 9.01483081,4.35421166 L14.175378,4.35421166 C14.8956613,4.35421166 15.4816415,4.94019179 15.4816415,5.66047516 L15.4816415,5.98655724 C15.1547531,5.63738171 14.6902716,5.41857451 14.175378,5.41857451 Z" id="Shape"></path>
                            <path d="M14.175378,6.96673866 L11.337077,6.96673866 C11.2034834,6.96673866 11.0951764,7.07501339 11.0951764,7.20863931 C11.0951764,7.34226523 11.2034834,7.45053996 11.337077,7.45053996 L14.175378,7.45053996 C14.3089716,7.45053996 14.4172786,7.34226523 14.4172786,7.20863931 C14.4172786,7.07501339 14.3089716,6.96673866 14.175378,6.96673866 Z" id="Path"></path>
                            <path d="M14.175378,7.99884809 L11.337077,7.99884809 C11.2034834,7.99884809 11.0951764,8.10712282 11.0951764,8.24074874 C11.0951764,8.37437466 11.2034834,8.48264939 11.337077,8.48264939 L14.175378,8.48264939 C14.3089716,8.48264939 14.4172786,8.37437466 14.4172786,8.24074874 C14.4172786,8.10712282 14.3089716,7.99884809 14.175378,7.99884809 Z" id="Path"></path>
                        </g>
                    </g>
                </g>
            </g>
        </g>
    </g>
</svg>