<?xml version="1.0" encoding="UTF-8"?>
<svg width="20px" height="13px" viewBox="0 0 20 13" version="1.1" xmlns="http://www.w3.org/2000/svg" xmlns:xlink="http://www.w3.org/1999/xlink">
    <title>group</title>
    <g id="Master-MBK" stroke="none" stroke-width="1" fill="none" fill-rule="evenodd">
        <g id="1.0-Employee-Data-(Light)" transform="translate(-22.000000, -173.000000)" fill="#9B9B9B" fill-rule="nonzero">
            <g id="Side-Menu" transform="translate(0.000000, 64.000000)">
                <g id="User" transform="translate(0.000000, 94.000000)">
                    <g id="group" transform="translate(22.000000, 15.000000)">
                        <path d="M17.2766798,5.59090909 C17.8616601,5.1798419 18.2490119,4.49604743 18.2490119,3.72529644 C18.2490119,2.46442688 17.229249,1.44466403 15.9683794,1.44466403 C14.7075099,1.44466403 13.687747,2.46442688 13.687747,3.72529644 C13.687747,4.49604743 14.0711462,5.1798419 14.6600791,5.59090909 C14.1581028,5.76482213 13.6996047,6.03359684 13.312253,6.38142292 C12.7786561,5.92687747 12.1501976,5.57905138 11.4624506,5.37351779 C12.2964427,4.86758893 12.8577075,3.94664032 12.8577075,2.89920949 C12.8577075,1.30237154 11.5652174,0.00988142292 9.96837945,0.00988142292 C8.3715415,0.00988142292 7.07905138,1.30632411 7.07905138,2.89920949 C7.07905138,3.94664032 7.63636364,4.86758893 8.4743083,5.37351779 C7.7944664,5.57905138 7.17391304,5.9229249 6.64426877,6.36956522 C6.256917,6.02964427 5.80632411,5.76482213 5.31225296,5.59486166 C5.8972332,5.18379447 6.28458498,4.5 6.28458498,3.72924901 C6.28458498,2.46837945 5.26482213,1.4486166 4.00395257,1.4486166 C2.743083,1.4486166 1.72332016,2.46837945 1.72332016,3.72924901 C1.72332016,4.5 2.10671937,5.18379447 2.69565217,5.59486166 C1.12648221,6.13636364 0,7.62648221 0,9.37747036 L0,9.63833992 C0,9.64624506 0.00790513834,9.6541502 0.0158102767,9.6541502 L4.84980237,9.6541502 C4.82213439,9.8715415 4.80632411,10.0968379 4.80632411,10.3221344 L4.80632411,10.5909091 C4.80632411,11.7529644 5.74703557,12.6936759 6.90909091,12.6936759 L13.0355731,12.6936759 C14.1976285,12.6936759 15.1383399,11.7529644 15.1383399,10.5909091 L15.1383399,10.3221344 C15.1383399,10.0968379 15.1225296,9.8715415 15.0948617,9.6541502 L19.9604743,9.6541502 C19.9683794,9.6541502 19.9762846,9.64624506 19.9762846,9.63833992 L19.9762846,9.37747036 C19.9683794,7.62252964 18.8458498,6.13241107 17.2766798,5.59090909 Z M14.3201581,3.72134387 C14.3201581,2.81225296 15.0592885,2.07312253 15.9683794,2.07312253 C16.8774704,2.07312253 17.6166008,2.81225296 17.6166008,3.72134387 C17.6166008,4.61857708 16.8932806,5.34980237 16,5.36956522 C15.9881423,5.36956522 15.9802372,5.36956522 15.9683794,5.36956522 C15.9565217,5.36956522 15.9486166,5.36956522 15.9367589,5.36956522 C15.0395257,5.35375494 14.3201581,4.62252964 14.3201581,3.72134387 Z M7.70355731,2.89920949 C7.70355731,1.6541502 8.71541502,0.64229249 9.96047431,0.64229249 C11.2055336,0.64229249 12.2173913,1.6541502 12.2173913,2.89920949 C12.2173913,4.10079051 11.2727273,5.08498024 10.0909091,5.15217391 C10.0474308,5.15217391 10.0039526,5.15217391 9.96047431,5.15217391 C9.91699605,5.15217391 9.87351779,5.15217391 9.83003953,5.15217391 C8.64822134,5.08498024 7.70355731,4.10079051 7.70355731,2.89920949 Z M2.34387352,3.72134387 C2.34387352,2.81225296 3.08300395,2.07312253 3.99209486,2.07312253 C4.90118577,2.07312253 5.64031621,2.81225296 5.64031621,3.72134387 C5.64031621,4.61857708 4.91699605,5.34980237 4.02371542,5.36956522 C4.01185771,5.36956522 4.00395257,5.36956522 3.99209486,5.36956522 C3.98023715,5.36956522 3.97233202,5.36956522 3.96047431,5.36956522 C3.06719368,5.35375494 2.34387352,4.62252964 2.34387352,3.72134387 Z M4.96047431,9.01778656 L0.640316206,9.01778656 C0.818181818,7.33399209 2.24110672,6.01383399 3.96837945,6.00197628 C3.97628458,6.00197628 3.98418972,6.00197628 3.99209486,6.00197628 C4,6.00197628 4.00790514,6.00197628 4.01581028,6.00197628 C4.83794466,6.00592885 5.58893281,6.31027668 6.16996047,6.80434783 C5.60079051,7.42094862 5.17786561,8.1798419 4.96047431,9.01778656 Z M13.027668,12.0612648 L6.90118577,12.0612648 C6.09090909,12.0612648 5.43083004,11.4011858 5.43083004,10.5909091 L5.43083004,10.3221344 C5.43083004,7.86758893 7.39130435,5.85968379 9.83003953,5.78853755 C9.87351779,5.79249012 9.92094862,5.79249012 9.96442688,5.79249012 C10.0079051,5.79249012 10.055336,5.79249012 10.0988142,5.78853755 C12.5375494,5.85968379 14.4980237,7.86758893 14.4980237,10.3221344 L14.4980237,10.5909091 C14.4980237,11.4011858 13.8379447,12.0612648 13.027668,12.0612648 Z M14.9683794,9.01778656 C14.7509881,8.18379447 14.3359684,7.43675889 13.770751,6.8201581 C14.3557312,6.31422925 15.1146245,6.00988142 15.944664,6.00197628 C15.9525692,6.00197628 15.9604743,6.00197628 15.9683794,6.00197628 C15.9762846,6.00197628 15.9841897,6.00197628 15.9920949,6.00197628 C17.7193676,6.01383399 19.1422925,7.33399209 19.3201581,9.01778656 L14.9683794,9.01778656 Z" id="Shape"></path>
                    </g>
                </g>
            </g>
        </g>
    </g>
</svg>