<?xml version="1.0" encoding="UTF-8"?>
<svg width="19px" height="19px" viewBox="0 0 19 19" version="1.1" xmlns="http://www.w3.org/2000/svg" xmlns:xlink="http://www.w3.org/1999/xlink">
    <title>LightMode</title>
    <g id="Master-MBK" stroke="none" stroke-width="1" fill="none" fill-rule="evenodd">
        <g id="1.0-Employee-Data-(Dark)" transform="translate(-1250.000000, -23.000000)" fill="#A6B9C8" fill-rule="nonzero">
            <g id="Head" transform="translate(210.000000, 0.000000)">
                <g id="brightness" transform="translate(1040.000000, 23.000000)">
                    <circle id="Oval" cx="9.47532468" cy="9.47532468" r="4.21127597"></circle>
                    <path d="M9.47532468,0 C8.89385065,0 8.42249026,0.47136039 8.42249026,1.05283442 L8.42249026,2.10566883 C8.42249026,2.68714286 8.89385065,3.15850325 9.47532468,3.15850325 C10.0567987,3.15850325 10.5281591,2.68714286 10.5281591,2.10566883 L10.5281591,1.05283442 C10.5281591,0.47136039 10.0567987,0 9.47532468,0 Z" id="Path"></path>
                    <path d="M9.47532468,15.7922078 C8.89385065,15.7922078 8.42249026,16.2635682 8.42249026,16.8450422 L8.42249026,17.8978766 C8.42249026,18.4793506 8.89385065,18.950711 9.47532468,18.950711 C10.0567987,18.950711 10.5281591,18.4793506 10.5281591,17.8978766 L10.5281591,16.8450422 C10.5281591,16.2635682 10.0567987,15.7922078 9.47532468,15.7922078 Z" id="Path"></path>
                    <path d="M17.8978149,8.42249026 L16.8449805,8.42249026 C16.2635065,8.42249026 15.7921461,8.89385065 15.7921461,9.47532468 C15.7921461,10.0567987 16.2635065,10.5281591 16.8449805,10.5281591 L17.8978149,10.5281591 C18.479289,10.5281591 18.9506494,10.0567987 18.9506494,9.47532468 C18.9506494,8.89385065 18.479289,8.42249026 17.8978149,8.42249026 Z" id="Path"></path>
                    <path d="M2.10560714,8.42249026 L1.05283442,8.42249026 C0.47136039,8.42249026 0,8.89385065 0,9.47532468 C0,10.0567987 0.47136039,10.5281591 1.05283442,10.5281591 L2.10566883,10.5281591 C2.68714286,10.5281591 3.15850325,10.0567987 3.15850325,9.47532468 C3.15850325,8.89385065 2.68708117,8.42249026 2.10560714,8.42249026 Z" id="Path"></path>
                    <path d="M16.1496299,2.77523377 C15.7416234,2.38116883 15.0947597,2.38116883 14.6867532,2.77523377 L13.9424221,3.51956494 C13.5313312,3.93077922 13.5314545,4.59738312 13.9426688,5.00847403 C14.1400714,5.20581494 14.4076753,5.31666883 14.6868149,5.31673052 C14.9660162,5.31666883 15.2337435,5.20569156 15.4311461,5.00822727 L16.1754773,4.2638961 C16.5794123,3.84564935 16.5678149,3.17916883 16.1496299,2.77523377 Z" id="Path"></path>
                    <path d="M5.03413636,13.9424221 C4.6302013,13.5241753 3.96365909,13.5125779 3.54547403,13.9165747 C3.53671429,13.925026 3.52807792,13.9336623 3.51962662,13.9424221 L2.77523377,14.6867532 C2.35698701,15.0906883 2.34538961,15.7571688 2.74938636,16.1754156 C3.15332143,16.5936623 3.81986364,16.6052597 4.2380487,16.201263 C4.24680844,16.1928117 4.25544481,16.1841753 4.2638961,16.1754156 L5.00822727,15.4310844 C5.42647403,15.0271494 5.43807143,14.3606688 5.03413636,13.9424221 Z" id="Path"></path>
                    <path d="M16.1754156,14.6867532 L15.4310844,13.9424221 C15.0128377,13.538487 14.3463571,13.5500844 13.9424221,13.9683312 C13.5484188,14.3763377 13.5484188,15.0231396 13.9424221,15.4310844 L14.6867532,16.1754156 C15.105,16.5793506 15.7714805,16.5677532 16.1754156,16.1495065 C16.5694805,15.7415617 16.5694805,15.0947597 16.1754156,14.6867532 Z" id="Path"></path>
                    <path d="M5.03413636,3.54547403 C5.02562338,3.53671429 5.01698701,3.52807792 5.00822727,3.51956494 L4.2638961,2.77523377 C3.84564935,2.3712987 3.17916883,2.3828961 2.77523377,2.80108117 C2.38116883,3.20908766 2.38116883,3.85588961 2.77523377,4.2638961 L3.51956494,5.00822727 C3.9235,5.42647403 4.58998052,5.43807143 5.00822727,5.03413636 C5.42647403,4.6302013 5.43807143,3.96372078 5.03413636,3.54547403 Z" id="Path"></path>
                </g>
            </g>
        </g>
    </g>
</svg>