<?xml version="1.0" encoding="UTF-8"?>
<svg width="48px" height="58px" viewBox="0 0 48 58" version="1.1" xmlns="http://www.w3.org/2000/svg" xmlns:xlink="http://www.w3.org/1999/xlink">
    <title>list</title>
    <defs>
        <filter x="-40.0%" y="-32.4%" width="180.0%" height="166.0%" filterUnits="objectBoundingBox" id="filter-1">
            <feOffset dx="4" dy="4" in="SourceAlpha" result="shadowOffsetOuter1"></feOffset>
            <feGaussianBlur stdDeviation="2" in="shadowOffsetOuter1" result="shadowBlurOuter1"></feGaussianBlur>
            <feColorMatrix values="0 0 0 0 0.965098505   0 0 0 0 0.638091243   0 0 0 0 0  0 0 0 0.5 0" type="matrix" in="shadowBlurOuter1" result="shadowMatrixOuter1"></feColorMatrix>
            <feMerge>
                <feMergeNode in="shadowMatrixOuter1"></feMergeNode>
                <feMergeNode in="SourceGraphic"></feMergeNode>
            </feMerge>
        </filter>
    </defs>
    <g id="Template-Home" stroke="none" stroke-width="1" fill="none" fill-rule="evenodd" opacity="0.70031157">
        <g id="1.0-Template-Home-(Light)" transform="translate(-489.000000, -222.000000)" fill="#FFFFFF" fill-rule="nonzero">
            <g id="Group" transform="translate(341.000000, 195.000000)">
                <g transform="translate(148.000000, 27.000000)" id="list" filter="url(#filter-1)">
                    <g id="Shape">
                        <path d="M37.0563272,0 L2.48842593,0 C1.25385802,0 0.0192901235,1.2345679 0.0192901235,2.4691358 L0.0192901235,46.9135802 C0.0192901235,48.3950617 1.25385802,49.382716 2.48842593,49.382716 L37.0563272,49.382716 C38.5378086,49.382716 39.525463,48.3950617 39.525463,46.9135802 L39.525463,2.4691358 C39.525463,1.2345679 38.5378086,0 37.0563272,0 Z M9.89583333,41.9753086 L4.95756173,41.9753086 L4.95756173,37.037037 L9.89583333,37.037037 L9.89583333,41.9753086 Z M9.89583333,32.0987654 L4.95756173,32.0987654 L4.95756173,27.1604938 L9.89583333,27.1604938 L9.89583333,32.0987654 Z M9.89583333,22.2222222 L4.95756173,22.2222222 L4.95756173,17.2839506 L9.89583333,17.2839506 L9.89583333,22.2222222 Z M9.89583333,12.345679 L4.95756173,12.345679 L4.95756173,7.40740741 L9.89583333,7.40740741 L9.89583333,12.345679 Z M32.1180556,41.9753086 L17.3032407,41.9753086 C15.8217593,41.9753086 14.8341049,40.9876543 14.8341049,39.5061728 C14.8341049,38.0246914 15.8217593,37.037037 17.3032407,37.037037 L32.1180556,37.037037 C33.599537,37.037037 34.5871914,38.0246914 34.5871914,39.5061728 C34.5871914,40.9876543 33.599537,41.9753086 32.1180556,41.9753086 Z M32.1180556,32.0987654 L17.3032407,32.0987654 C15.8217593,32.0987654 14.8341049,31.1111111 14.8341049,29.6296296 C14.8341049,28.1481481 15.8217593,27.1604938 17.3032407,27.1604938 L32.1180556,27.1604938 C33.599537,27.1604938 34.5871914,28.1481481 34.5871914,29.6296296 C34.5871914,31.1111111 33.599537,32.0987654 32.1180556,32.0987654 Z M32.1180556,22.2222222 L17.3032407,22.2222222 C16.0686728,22.2222222 14.8341049,21.2345679 14.8341049,19.7530864 C14.8341049,18.2716049 15.8217593,17.2839506 17.3032407,17.2839506 L32.1180556,17.2839506 C33.599537,17.2839506 34.5871914,18.2716049 34.5871914,19.7530864 C34.5871914,21.2345679 33.599537,22.2222222 32.1180556,22.2222222 Z M32.1180556,12.345679 L17.3032407,12.345679 C16.0686728,12.345679 14.8341049,11.3580247 14.8341049,9.87654321 C14.8341049,8.39506173 15.8217593,7.40740741 17.3032407,7.40740741 L32.1180556,7.40740741 C33.599537,7.40740741 34.5871914,8.39506173 34.5871914,9.87654321 C34.5871914,11.3580247 33.599537,12.345679 32.1180556,12.345679 Z"></path>
                    </g>
                </g>
            </g>
        </g>
    </g>
</svg>