<?xml version="1.0" encoding="UTF-8"?>
<svg width="18px" height="14px" viewBox="0 0 18 14" version="1.1" xmlns="http://www.w3.org/2000/svg" xmlns:xlink="http://www.w3.org/1999/xlink">
    <title>megaphone-2</title>
    <g id="Master-MBK" stroke="none" stroke-width="1" fill="none" fill-rule="evenodd">
        <g id="1.0-Employee-Data-(Light)" transform="translate(-20.000000, -424.000000)" fill="#9B9B9B" fill-rule="nonzero">
            <g id="Side-Menu" transform="translate(0.000000, 64.000000)">
                <g id="Notifications" transform="translate(0.000000, 346.000000)">
                    <g id="Shape" transform="translate(20.000000, 14.000000)">
                        <path d="M14.8502525,3.7140303 L14.8502525,0.389348485 C14.8447374,0.260484848 14.7754798,0.142792929 14.6655657,0.0753383838 C14.5606717,0.0108181818 14.4343182,-0.00915656566 14.3146111,0.0199393939 L6.98186364,2.93826768 L3.36166162,2.93826768 C2.67916162,2.95173737 2.05736364,3.33330808 1.73624747,3.93566162 L1.40378283,4.06494949 C0.562050505,4.35665152 -0.00176767677,5.15044444 -1.55498204e-06,6.04128283 C-0.00526767677,6.92897475 0.561343434,7.71926768 1.40378283,7.99916162 L1.62541414,8.09150505 C1.79606566,8.53328283 2.12538384,8.89551515 2.54891919,9.10738889 L3.52785859,12.653702 C3.79046465,13.6182879 4.78531313,14.1873384 5.74989899,13.9247323 C6.13896465,13.8188131 6.4815404,13.5860101 6.72325253,13.2632323 C7.05847475,12.7993232 7.1670101,12.2091313 7.01877273,11.6563081 L6.35384343,9.21822222 L6.98182828,9.21822222 L14.3145758,12.1919495 L14.4438636,12.2288939 C14.5213232,12.230096 14.5977222,12.2110051 14.6654949,12.1734949 C14.7750909,12.1146667 14.8453384,12.0022424 14.8501818,11.8779747 L14.8501818,8.36860606 C16.1354949,8.36857071 17.177399,7.32659596 17.177399,6.04124747 C17.177399,4.7559697 16.1355303,3.71406566 14.8502525,3.7140303 Z M1.55156061,7.26034343 C1.05795455,7.06282323 0.745676768,6.57208081 0.77579798,6.04128283 C0.745676768,5.51048485 1.05795455,5.01974242 1.55156061,4.82222222 L1.55156061,7.26034343 Z M6.13221212,12.8014798 C5.92878788,13.075399 5.60519697,13.2337121 5.26410606,13.2262879 C4.77845455,13.2114394 4.35909091,12.8819444 4.22976768,12.4135808 L3.36166162,9.21818687 L5.59657071,9.21818687 L6.29844444,11.8409949 C6.39435859,12.1696414 6.3330202,12.5241667 6.13221212,12.8014798 Z M6.72328788,8.47936869 L3.36166162,8.47936869 C2.80144949,8.51009091 2.32240909,8.08082828 2.29168687,7.52061616 C2.29030808,7.49544444 2.28984848,7.47023737 2.29037879,7.4450303 L2.29037879,4.82222222 C2.26966162,4.21053535 2.74873737,3.69783838 3.36042424,3.67705051 C3.36084848,3.67705051 3.36123737,3.67705051 3.36166162,3.67705051 L6.72328788,3.67705051 L6.72328788,8.47936869 Z M14.1114343,11.3238434 L7.46207071,8.66409091 L7.46207071,3.60319697 L14.1114343,0.943444444 L14.1114343,11.3238434 Z M14.8502525,7.62975253 L14.8502525,4.45284848 C15.7275505,4.45288384 16.4386869,5.16409091 16.4386515,6.04138889 C16.4385808,6.91858081 15.7274798,7.62971717 14.8502525,7.62975253 Z"></path>
                    </g>
                </g>
            </g>
        </g>
    </g>
</svg>