<?xml version="1.0" encoding="UTF-8"?>
<svg width="14px" height="16px" viewBox="0 0 14 16" version="1.1" xmlns="http://www.w3.org/2000/svg" xmlns:xlink="http://www.w3.org/1999/xlink">
    <title>pie-chart</title>
    <g id="Master-MBK" stroke="none" stroke-width="1" fill="none" fill-rule="evenodd">
        <g id="1.0-Employee-Data-(Light)" transform="translate(-22.000000, -381.000000)" fill="#9B9B9B" fill-rule="nonzero">
            <g id="Side-Menu" transform="translate(0.000000, 64.000000)">
                <g id="Report" transform="translate(0.000000, 304.000000)">
                    <g id="pie-chart" transform="translate(22.000000, 13.000000)">
                        <path d="M11.6666667,16 L1.66666667,16 C0.748,16 0,15.252 0,14.3333333 L0,1.66666667 C0,0.748 0.748,0 1.66666667,0 L11.6666667,0 C12.5853333,0 13.3333333,0.748 13.3333333,1.66666667 L13.3333333,14.3333333 C13.3333333,15.252 12.5853333,16 11.6666667,16 Z M1.66666667,0.666666667 C1.11533333,0.666666667 0.666666667,1.11533333 0.666666667,1.66666667 L0.666666667,14.3333333 C0.666666667,14.8846667 1.11533333,15.3333333 1.66666667,15.3333333 L11.6666667,15.3333333 C12.218,15.3333333 12.6666667,14.8846667 12.6666667,14.3333333 L12.6666667,1.66666667 C12.6666667,1.11533333 12.218,0.666666667 11.6666667,0.666666667 L1.66666667,0.666666667 Z" id="Shape"></path>
                        <path d="M11,8 L9.66666667,8 C9.48266667,8 9.33333333,7.85066667 9.33333333,7.66666667 C9.33333333,7.48266667 9.48266667,7.33333333 9.66666667,7.33333333 L11,7.33333333 C11.184,7.33333333 11.3333333,7.48266667 11.3333333,7.66666667 C11.3333333,7.85066667 11.184,8 11,8 Z" id="Path"></path>
                        <path d="M11,6 L9.66666667,6 C9.48266667,6 9.33333333,5.85066667 9.33333333,5.66666667 C9.33333333,5.48266667 9.48266667,5.33333333 9.66666667,5.33333333 L11,5.33333333 C11.184,5.33333333 11.3333333,5.48266667 11.3333333,5.66666667 C11.3333333,5.85066667 11.184,6 11,6 Z" id="Path"></path>
                        <path d="M11,10 L9.66666667,10 C9.48266667,10 9.33333333,9.85066667 9.33333333,9.66666667 C9.33333333,9.48266667 9.48266667,9.33333333 9.66666667,9.33333333 L11,9.33333333 C11.184,9.33333333 11.3333333,9.48266667 11.3333333,9.66666667 C11.3333333,9.85066667 11.184,10 11,10 Z" id="Path"></path>
                        <path d="M11,12 L9.66666667,12 C9.48266667,12 9.33333333,11.8506667 9.33333333,11.6666667 C9.33333333,11.4826667 9.48266667,11.3333333 9.66666667,11.3333333 L11,11.3333333 C11.184,11.3333333 11.3333333,11.4826667 11.3333333,11.6666667 C11.3333333,11.8506667 11.184,12 11,12 Z" id="Path"></path>
                        <path d="M11,14 L2.33333333,14 C2.14933333,14 2,13.8506667 2,13.6666667 C2,13.4826667 2.14933333,13.3333333 2.33333333,13.3333333 L11,13.3333333 C11.184,13.3333333 11.3333333,13.4826667 11.3333333,13.6666667 C11.3333333,13.8506667 11.184,14 11,14 Z" id="Path"></path>
                        <path d="M5.33333333,12 C3.49533333,12 2,10.5046667 2,8.66666667 C2,6.82866667 3.49533333,5.33333333 5.33333333,5.33333333 C7.17133333,5.33333333 8.66666667,6.82866667 8.66666667,8.66666667 C8.66666667,10.5046667 7.17133333,12 5.33333333,12 Z M5.33333333,6 C3.86266667,6 2.66666667,7.196 2.66666667,8.66666667 C2.66666667,10.1373333 3.86266667,11.3333333 5.33333333,11.3333333 C6.804,11.3333333 8,10.1373333 8,8.66666667 C8,7.196 6.804,6 5.33333333,6 Z" id="Shape"></path>
                        <path d="M3.212,11.1213333 C3.12666667,11.1213333 3.04133333,11.0886667 2.976,11.024 C2.846,10.894 2.846,10.6826667 2.976,10.5526667 L5,8.52866667 L5,5.66666667 C5,5.48266667 5.14933333,5.33333333 5.33333333,5.33333333 C5.51733333,5.33333333 5.66666667,5.48266667 5.66666667,5.66666667 L5.66666667,8.66666667 C5.66666667,8.75533333 5.63133333,8.84 5.56933333,8.90266667 L3.448,11.024 C3.38266667,11.0886667 3.29733333,11.1213333 3.212,11.1213333 L3.212,11.1213333 Z" id="Path"></path>
                    </g>
                </g>
            </g>
        </g>
    </g>
</svg>