<?xml version="1.0" encoding="UTF-8"?>
<svg width="12px" height="12px" viewBox="0 0 12 12" version="1.1" xmlns="http://www.w3.org/2000/svg" xmlns:xlink="http://www.w3.org/1999/xlink">
    <title>plus</title>
    <g id="Template-Group" stroke="none" stroke-width="1" fill="none" fill-rule="evenodd">
        <g id="1.0-Template-Group-Menu-(Light)" transform="translate(-1250.000000, -94.000000)" fill="#4A4A4A" fill-rule="nonzero">
            <g id="New" transform="translate(1164.000000, 80.000000)">
                <g id="Path" transform="translate(86.000000, 14.000000)">
                    <path d="M11.53125,5.53125 L6.46875,5.53125 L6.46875,0.46875 C6.46875,0.209859375 6.25889062,0 6,0 C5.74110938,0 5.53125,0.209859375 5.53125,0.46875 L5.53125,5.53125 L0.46875,5.53125 C0.209859375,5.53125 0,5.74110938 0,6 C0,6.25889062 0.209859375,6.46875 0.46875,6.46875 L5.53125,6.46875 L5.53125,11.53125 C5.53125,11.7901406 5.74110938,12 6,12 C6.25889062,12 6.46875,11.7901406 6.46875,11.53125 L6.46875,6.46875 L11.53125,6.46875 C11.7901406,6.46875 12,6.25889062 12,6 C12,5.74110938 11.7901406,5.53125 11.53125,5.53125 Z"></path>
                </g>
            </g>
        </g>
    </g>
</svg>