<?xml version="1.0" encoding="UTF-8"?>
<svg width="19px" height="13px" viewBox="0 0 19 13" version="1.1" xmlns="http://www.w3.org/2000/svg" xmlns:xlink="http://www.w3.org/1999/xlink">
    <title>setting-tool</title>
    <g id="Master-MBK" stroke="none" stroke-width="1" fill="none" fill-rule="evenodd">
        <g id="1.0-Employee-Data-(Light)" transform="translate(-19.000000, -466.000000)" fill="#9B9B9B" fill-rule="nonzero">
            <g id="Side-Menu" transform="translate(0.000000, 64.000000)">
                <g id="Setting" transform="translate(0.000000, 388.000000)">
                    <g id="Shape" transform="translate(19.000000, 14.000000)">
                        <path d="M12.8955714,7.08609524 L12.8955714,5.89361905 C12.8955714,5.22319048 12.4929524,5.03952381 11.1882857,4.56995238 C11.7392857,3.3132381 11.8831429,2.89795238 11.4126667,2.43290476 L10.5522381,1.59328571 C10.3848571,1.42861905 10.1441905,1.33090476 9.9062381,1.33090476 C9.74609524,1.33090476 9.58052381,1.33090476 8.39438095,1.85928571 C7.87504762,0.578142857 7.67961905,0.183666667 7.03090476,0.183666667 L5.814,0.183666667 C5.17342857,0.183666667 4.98071429,0.540142857 4.47857143,1.86742857 C3.27252381,1.36709524 3.10333333,1.36709524 2.9522381,1.36709524 C2.71428571,1.36709524 2.47361905,1.46480952 2.30804762,1.62766667 L1.44580952,2.47090476 C0.96447619,2.94409524 1.13004762,3.38742857 1.69642857,4.59257143 C0.367333333,5.11009524 0,5.2892381 0,5.94247619 L0,7.13585714 C0,7.80628571 0.402619048,7.99085714 1.70638095,8.46042857 C1.15628571,9.71533333 1.0142381,10.130619 1.482,10.5947619 L2.33971429,11.4334762 C2.50619048,11.5999524 2.74957143,11.6994762 2.98842857,11.6994762 C3.14766667,11.6994762 3.3132381,11.6994762 4.50028571,11.1701905 C5.02052381,12.4513333 5.21504762,12.8467143 5.86466667,12.8467143 L7.08247619,12.8467143 C7.72214286,12.8467143 7.9157619,12.4893333 8.41880952,11.1611429 C9.6257619,11.6641905 9.79404762,11.6641905 9.9442381,11.6641905 C10.1812857,11.6641905 10.4219524,11.5664762 10.5884286,11.403619 L11.4560952,10.5549524 C11.932,10.0817619 11.7673333,9.63842857 11.2009524,8.43780952 C12.4956667,7.93204762 12.8955714,7.73842857 12.8955714,7.08609524 Z M9.90533333,10.605619 C9.79042857,10.5748571 9.46652381,10.4680952 8.60157143,10.1025714 L8.40252381,10.0184286 L7.60814286,10.339619 L7.52671429,10.5540476 C7.43080952,10.8128095 7.15757143,11.5411429 7.01280952,11.7980952 L5.93071429,11.7971905 C5.7832381,11.5492857 5.49552381,10.8363333 5.37880952,10.5477143 L5.29557143,10.3423333 L4.50119048,10.0220476 L4.29671429,10.1143333 C3.43990476,10.5024762 3.12595238,10.6119524 3.02733333,10.6418095 L2.26552381,9.89628571 C2.34242857,9.614 2.65004762,8.91552381 2.77490476,8.6332381 L2.86628571,8.42695238 L2.53695238,7.64704762 L2.32071429,7.5692381 C2.02847619,7.46519048 1.30647619,7.20642857 1.04771429,7.06619048 L1.04771429,6.0112381 C1.30014286,5.86919048 2.00495238,5.59595238 2.32704762,5.47109524 L2.5342381,5.39057143 L2.86357143,4.6097619 L2.76314286,4.39895238 C2.64461905,4.15014286 2.31528571,3.45257143 2.2302381,3.16757143 L2.9902381,2.42385714 C3.10514286,2.45461905 3.42995238,2.55957143 4.29671429,2.92509524 L4.4957619,3.01014286 L5.28833333,2.68895238 L5.36885714,2.47361905 C5.4647619,2.21485714 5.738,1.48742857 5.88185714,1.22957143 L6.96395238,1.22957143 C7.11142857,1.47838095 7.39914286,2.19133333 7.51585714,2.47995238 L7.59909524,2.68533333 L8.39257143,3.00652381 L8.59795238,2.91333333 C9.45566667,2.52519048 9.76871429,2.41571429 9.86733333,2.38585714 L10.6300476,3.13138095 C10.5531429,3.4127619 10.244619,4.1112381 10.1206667,4.39442857 L10.0292857,4.60161905 L10.3595238,5.38333333 L10.5757619,5.4602381 C10.8670952,5.56519048 11.5872857,5.82304762 11.8478571,5.96238095 L11.8469524,7.01461905 C11.5909048,7.16119048 10.8625714,7.44347619 10.567619,7.55838095 L10.3604286,7.63890476 L10.0329048,8.42061905 L10.1324286,8.63052381 C10.2500476,8.87842857 10.5802857,9.576 10.6662381,9.86009524 L9.90533333,10.605619 Z"></path>
                        <path d="M6.4482381,4.62966667 C5.38695238,4.62966667 4.52380952,5.47561905 4.52380952,6.51519048 C4.52380952,7.5547619 5.38695238,8.40161905 6.4482381,8.40161905 C7.50952381,8.40161905 8.37266667,7.5547619 8.37266667,6.51519048 C8.37266667,5.47561905 7.50952381,4.62966667 6.4482381,4.62966667 Z M6.4482381,7.35480952 C5.96419048,7.35480952 5.56971429,6.97752381 5.56971429,6.51519048 C5.56971429,6.05285714 5.96419048,5.67647619 6.4482381,5.67647619 C6.93228571,5.67647619 7.32585714,6.05285714 7.32585714,6.51519048 C7.32585714,6.97752381 6.93228571,7.35480952 6.4482381,7.35480952 Z"></path>
                        <path d="M17.7640952,9.14442857 C18.0165238,8.569 18.0825714,8.379 17.8672381,8.16638095 L17.4718571,7.78185714 C17.3958571,7.70585714 17.2854762,7.66152381 17.1769048,7.66152381 C17.103619,7.66152381 17.0285238,7.66152381 16.4847619,7.904 C16.2468095,7.31771429 16.1581429,7.1367619 15.861381,7.1367619 L15.3049524,7.1367619 C15.0118095,7.1367619 14.9231429,7.30052381 14.6933333,7.90761905 C14.1423333,7.67871429 14.0645238,7.67871429 13.9957619,7.67871429 C13.8871905,7.67871429 13.7768095,7.72395238 13.7008095,7.79814286 L13.3054286,8.18447619 C13.0855714,8.40071429 13.1615714,8.60428571 13.4203333,9.15528571 C12.8114286,9.39233333 12.6449524,9.47466667 12.6449524,9.7732381 L12.6449524,10.3197143 C12.6449524,10.6264286 12.828619,10.7114762 13.4257619,10.9259048 C13.1742381,11.5004286 13.1081905,11.6904286 13.322619,11.9030476 L13.7152857,12.2866667 C13.7921905,12.3626667 13.9034762,12.4079048 14.0129524,12.4079048 C14.0853333,12.4079048 14.1613333,12.4079048 14.7050952,12.1654286 C14.9430476,12.7517143 15.0317143,12.9326667 15.3284762,12.9326667 L15.8858095,12.9326667 C16.1780476,12.9326667 16.2667143,12.7698095 16.4974286,12.1618095 C17.0493333,12.391619 17.1262381,12.391619 17.195,12.391619 C17.3035714,12.391619 17.4139524,12.346381 17.4899524,12.2721905 L17.8862381,11.8831429 C18.1042857,11.6669048 18.0282857,11.4642381 17.7695238,10.9150476 C18.3621429,10.6834286 18.5449048,10.5947619 18.5449048,10.2961905 L18.5449048,9.74971429 C18.5449048,9.443 18.3612381,9.35885714 17.7640952,9.14442857 Z M18.0662857,10.263619 C17.9495714,10.3305714 17.6157143,10.4599524 17.4809048,10.5115238 L17.3868095,10.548619 L17.236619,10.906 L17.2827619,11.0028095 C17.3370476,11.1159048 17.4881429,11.4352857 17.5270476,11.5655714 L17.1787143,11.9057619 C17.1253333,11.8912857 16.9769524,11.8433333 16.5815714,11.6759524 L16.4901905,11.6370476 L16.127381,11.7845238 L16.0902857,11.8822381 C16.0459524,12.0007619 15.9210952,12.3337143 15.8550476,12.4513333 L15.3592381,12.4513333 C15.2922857,12.3373333 15.1592857,12.011619 15.1068095,11.8795238 L15.0688095,11.7854286 L14.706,11.6379524 L14.6119048,11.6804762 C14.2192381,11.8578095 14.075381,11.9075714 14.0301429,11.9220476 L13.6818095,11.5800476 C13.7170952,11.4515714 13.8573333,11.1321905 13.9143333,11.0028095 L13.9559524,10.9078095 L13.8057619,10.5513333 L13.7071429,10.5151429 C13.5741429,10.4671905 13.243,10.3486667 13.1244762,10.2853333 L13.1244762,9.80219048 C13.2402857,9.73795238 13.562381,9.61219048 13.7089524,9.55519048 L13.8039524,9.519 L13.9541429,9.16071429 L13.9089048,9.06480952 C13.8537143,8.95171429 13.7035238,8.63233333 13.664619,8.50204762 L14.0129524,8.16185714 C14.0654286,8.17542857 14.2138095,8.22338095 14.6100952,8.39166667 L14.7014762,8.43057143 L15.0642857,8.284 L15.1004762,8.18538095 C15.1457143,8.06685714 15.2696667,7.73390476 15.3357143,7.61628571 L15.8315238,7.61628571 C15.8984762,7.73028571 16.0305714,8.05690476 16.0839524,8.189 L16.1219524,8.28309524 L16.4847619,8.43057143 L16.5788571,8.38804762 C16.9715238,8.20980952 17.115381,8.16004762 17.160619,8.14647619 L17.5098571,8.48757143 C17.4736667,8.61604762 17.3334286,8.93542857 17.2755238,9.06571429 L17.2339048,9.15980952 L17.385,9.51809524 L17.483619,9.55338095 C17.6175238,9.60133333 17.9477619,9.71985714 18.0662857,9.78319048 C18.0662857,9.78319048 18.0662857,10.263619 18.0662857,10.263619 Z"></path>
                        <path d="M15.5944762,9.17157143 C15.1095238,9.17157143 14.7141429,9.55880952 14.7141429,10.0338095 C14.7141429,10.5097143 15.1095238,10.8969524 15.5944762,10.8969524 C16.0803333,10.8969524 16.4757143,10.5097143 16.4757143,10.0338095 C16.4757143,9.55880952 16.0803333,9.17157143 15.5944762,9.17157143 Z M15.5944762,10.4183333 C15.3728095,10.4183333 15.1927619,10.2464286 15.1927619,10.0338095 C15.1927619,9.823 15.3728095,9.65019048 15.5944762,9.65019048 C15.8161429,9.65019048 15.9961905,9.82209524 15.9961905,10.0338095 C15.9970952,10.2464286 15.8161429,10.4183333 15.5944762,10.4183333 Z"></path>
                    </g>
                </g>
            </g>
        </g>
    </g>
</svg>