<svg width="28" height="22" viewBox="0 0 28 22" fill="none" xmlns="http://www.w3.org/2000/svg">
<ellipse cx="14.0136" cy="11.0002" rx="2.12641" ry="2.12641" fill="#20E0A5"/>
<path fill-rule="evenodd" clip-rule="evenodd" d="M7.79785 10.9999C7.79785 7.57264 10.5862 4.7843 14.0135 4.7843C17.4408 4.7843 20.2291 7.57264 20.2291 10.9999C20.2291 14.4273 17.4408 17.2156 14.0135 17.2156C10.5862 17.2156 7.79785 14.4273 7.79785 10.9999ZM9.97876 10.9999C9.97876 13.2247 11.7887 15.0347 14.0135 15.0347C16.2382 15.0347 18.0482 13.2247 18.0482 10.9999C18.0482 8.77518 16.2382 6.96523 14.0135 6.96523C11.7887 6.96523 9.97876 8.77518 9.97876 10.9999Z" fill="#20E0A5"/>
<path d="M27.2103 8.61983C26.6314 7.73075 24.9976 5.44829 22.3384 3.46C19.6428 1.4445 16.8316 0.422485 13.9827 0.422485C11.1379 0.422485 8.32423 1.44171 5.61981 3.45176C2.94876 5.43701 1.30195 7.71663 0.717885 8.60456C-0.239295 10.0598 -0.239295 11.9403 0.717885 13.3955C1.30195 14.2835 2.94876 16.5631 5.61981 18.5483C8.32423 20.5584 11.1379 21.5776 13.9827 21.5776C18.3624 21.5776 21.8843 19.1356 24.0675 17.087C24.5067 16.6749 24.5286 15.9849 24.1165 15.5457C23.7044 15.1064 23.0144 15.0845 22.5752 15.4966C20.679 17.2758 17.649 19.3967 13.9826 19.3967C8.68808 19.3967 4.29874 14.8711 2.53983 12.197C2.06154 11.4699 2.06154 10.5303 2.53983 9.80318C4.29874 7.12907 8.68808 2.60353 13.9826 2.60353C19.277 2.60353 23.6396 7.13343 25.3827 9.81005C25.8535 10.533 25.8535 11.4672 25.3827 12.1902C25.0541 12.6948 25.1968 13.3703 25.7015 13.699C26.2061 14.0276 26.8817 13.885 27.2103 13.3803C28.1519 11.9343 28.1519 10.0657 27.2103 8.61983Z" fill="#20E0A5"/>
</svg>
